<?xml version="1.0" encoding="UTF-8"?>
<svg width="297mm" height="420mm" version="1.1" viewBox="0 0 1122.5 1587.4" xmlns="http://www.w3.org/2000/svg" xmlns:cc="http://creativecommons.org/ns#" xmlns:dc="http://purl.org/dc/elements/1.1/" xmlns:rdf="http://www.w3.org/1999/02/22-rdf-syntax-ns#">
 <title>Interviews mit Zoom aufzeichnen</title>
 <metadata>
  <rdf:RDF>
   <cc:Work rdf:about="">
    <dc:format>image/svg+xml</dc:format>
    <dc:type rdf:resource="http://purl.org/dc/dcmitype/StillImage"/>
    <dc:title>Interviews mit Zoom aufzeichnen</dc:title>
    <cc:license rdf:resource="http://creativecommons.org/licenses/by/4.0/"/>
    <dc:creator>
     <cc:Agent>
      <dc:title>Christian-Maximilian Steier</dc:title>
     </cc:Agent>
    </dc:creator>
    <dc:publisher>
     <cc:Agent>
      <dc:title>Hochschule Köln - Zentrum für Lehrentwicklung</dc:title>
     </cc:Agent>
    </dc:publisher>
    <dc:language>german</dc:language>
    <dc:subject>
     <rdf:Bag>
      <rdf:li>Zoom</rdf:li>
      <rdf:li>Aufzeichnung</rdf:li>
      <rdf:li>Interview</rdf:li>
     </rdf:Bag>
    </dc:subject>
    <dc:date>24.03.2021</dc:date>
   </cc:Work>
   <cc:License rdf:about="http://creativecommons.org/licenses/by/4.0/">
    <cc:permits rdf:resource="http://creativecommons.org/ns#Reproduction"/>
    <cc:permits rdf:resource="http://creativecommons.org/ns#Distribution"/>
    <cc:requires rdf:resource="http://creativecommons.org/ns#Notice"/>
    <cc:requires rdf:resource="http://creativecommons.org/ns#Attribution"/>
    <cc:permits rdf:resource="http://creativecommons.org/ns#DerivativeWorks"/>
   </cc:License>
  </rdf:RDF>
 </metadata>
 <defs>
  <style>.cls-1{fill:#c60c0f;}.cls-2{fill:#ea5b0c;}.cls-3{fill:#b62584;}</style>
 </defs>
 <style>tspan { white-space:pre }
		.txt0 { font-size: 268px;line-height: 14px;fill: #0b0c0c;font-family: "Font Awesome" } 
		.txt1 { font-size: 90px;line-height: 14px;fill: #ffffff;font-family: "Font Awesome" } 
		.txt2 { font-size: 80px;fill: #000000;font-weight: bold;font-family: "Helvetica Neue" } 
		.txt3 { font-size: 123px;line-height: 152px;fill: #000000;font-weight: bold;font-family: "Helvetica Neue" } 
		.shp4 { opacity: 0.502;fill: #ffffff } 
		.shp5 { fill: none;stroke: #85994b;stroke-linecap:square;stroke-width: 8 } 
		.txt6 { font-size: 100px;fill: #000000;font-weight: bold;font-family: "Helvetica Neue" } 
		.txt7 { font-size: 34px;fill: #000000;font-weight: bold;font-family: "Helvetica Neue" } 
		.txt8 { font-size: 48px;fill: #005ea5;font-weight: bold;font-family: "Helvetica Neue" } 
		.txt9 { font-size: 48px;fill: #0059a5;font-weight: bold;font-family: "Helvetica Neue" } 
		.shp10 { fill: #ffffff } 
		.txt11 { font-size: 200px;line-height: 14px;fill: #28a197;font-family: "Font Awesome" } 
		.shp12 { opacity: 0.467;fill: #ffffff } 
		.txt13 { font-size: 135px;line-height: 14px;fill: #f47738;font-family: "Font Awesome" } 
		.txt14 { font-size: 80px;fill: #b58840;font-weight: bold;font-family: "Helvetica Neue" } 
		.txt15 { font-size: 64px;fill: #28a197;font-weight: bold;font-family: "Helvetica Neue" } 
		.txt16 { font-size: 60px;fill: #f47738;font-weight: bold;font-family: "Helvetica Neue" } 
		.txt17 { font-size: 82px;fill: #333333;font-weight: bold;font-family: "Helvetica Neue" } 
		.txt18 { font-size: 48px;fill: #28a197;font-weight: bold;font-family: "Helvetica Neue" } 
		.shp19 { fill: none;stroke: #28a197;stroke-linecap:square;stroke-width: 4 } 
		.txt20 { font-size: 235px;line-height: 14px;fill: #333333;font-family: "Font Awesome" } 
		.shp21 { fill: #f47738 } 
		.shp22 { fill: #85994b } 
		.shp23 { fill: #28a197 } 
		.shp24 { fill: #b58840 } 
		.shp25 { fill: #ffbf47 } 
		.txt26 { font-size: 124px;fill: #85994b;font-weight: bold;font-family: "Helvetica Neue" } 
		.shp27 { fill: #df3034 } 
		.shp28 { fill: #844789 } 
		.shp29 { fill: #000206 } 
		.shp30 { fill: #131614 } 
		.shp31 { fill: #c53e78 } 
		.shp32 { fill: #e47448 } 
		.shp33 { fill: #768f51 } 
		.shp34 { fill: #aab2ab } 
		.shp35 { fill: #000000 } 
		.txt36 { font-size: 12px;line-height: 18px;fill: #000000;font-family: "Helvetica Neue" }</style>
 <path class="shp4" d="m40 40h1040v1380h-1040z" fill="#869289" opacity=".502" stroke-width="1.8015"/>
 <use id="background" transform="translate(43,49)" width="100%" height="100%" href="#img1"/>
 <text x="64.952934" y="140.65111" font-family="sans-serif" font-size="69.442px" stroke-width=".72335" style="line-height:1.45" xml:space="preserve"><tspan x="64.952934" y="140.65111" font-family="Arial" font-size="69.442px" font-weight="bold" stroke-width=".72335">Interviews mit Zoom</tspan></text>
 <text transform="scale(.9761 1.0245)" x="70.745964" y="274.39038" font-family="sans-serif" font-size="116.74px" stroke-width=".70606" style="line-height:1.45" xml:space="preserve"><tspan x="70.745964" y="274.39038" font-family="Arial" font-size="116.74px" font-weight="bold" stroke-width=".70606">aufzeichnen</tspan></text>
 <path d="m1023 82.313h-205.02c-11.319 0-20.502 9.1833-20.502 20.502v136.68c0 11.319 9.1834 20.502 20.502 20.502h82.009l-6.8342 20.502h-30.753c-5.6808 0-10.251 4.5703-10.251 10.251 0 5.6808 4.5704 10.251 10.251 10.251h116.18c5.6807 0 10.251-4.5703 10.251-10.251 0-5.6808-4.5704-10.251-10.251-10.251h-30.753l-6.8341-20.502h82.009c11.319 0 20.502-9.1833 20.502-20.502v-136.68c0-11.319-9.1834-20.502-20.502-20.502zm-6.8341 150.35h-191.35v-123.01h191.35z" stroke-width=".42713"/>
 <path d="m895.73 134.05c-19.01 0.31164-33.968 13.4-33.656 28.982 0 8.1025 4.6744 15.582 11.53 20.568 0 0.31163 0 0.62327 0.31166 0.9349 0.93491 6.2327-2.8048 11.219-2.8048 11.219s6.856-1.5582 10.907-4.6745c0.62333-0.62325 1.5582-1.2465 2.1814-2.1814 4.0514 1.2465 8.1027 1.8698 12.777 1.8698 18.698-0.31163 33.968-13.4 33.657-28.982-0.62333-15.582-16.205-28.047-34.903-27.736z" fill="none" stroke="#000" stroke-width="5.7868"/>
 <g>
  <path d="m911.72 163.47c0 2.0961-1.7236 3.8928-3.4471 3.8928-2.0108 0-3.7344-1.7967-3.7344-3.8928 0-2.0961 1.7236-3.5934 3.7344-3.5934 1.7235 0 3.4471 1.4972 3.4471 3.5934zm-14.65-3.5934c-2.0108 0-3.4472 1.7967-3.4472 3.5934 0 2.0961 1.7235 3.8928 3.4472 3.8928 2.0108 0 3.7344-1.7967 3.7344-3.8928-0.28729-2.0961-1.7235-3.5934-3.7344-3.5934zm-11.49 0c-2.0108 0-3.7344 1.7967-3.7344 3.5934 0 2.0961 1.7235 3.8928 3.7344 3.8928 2.0108 0 3.7344-1.7967 3.7344-3.8928 0-2.0961-1.7236-3.5934-3.7344-3.5934z" stroke-width=".47459"/>
  <path d="m965.35 198.32c5.4579-4.1922 9.1923-10.181 9.1923-17.068 0.28725-13.176-12.352-23.956-28.152-24.255-15.512-0.29944-28.439 9.8818-28.726 23.057-0.28719 13.176 12.352 23.956 28.152 24.255 4.0216 0 7.756-0.59889 11.203-1.4972 2.8726 3.8928 10.629 5.6895 10.629 5.6895s-3.4471-5.0906-2.298-10.181z"/>
  <path d="m960.04 179.3c0 2.0961-1.7235 3.8928-3.4471 3.8928-2.0108 0-3.7343-1.7967-3.7343-3.8928 0-2.0961 1.7235-3.5934 3.7343-3.5934 1.7236 0 3.4471 1.4972 3.4471 3.5934zm-14.65-3.5934c-2.0109 0-3.4472 1.7967-3.4472 3.5934 0 2.0961 1.7236 3.8928 3.4472 3.8928 2.0109 0 3.7344-1.7967 3.7344-3.8928-0.28725-2.0961-1.7235-3.5934-3.7344-3.5934zm-11.49 0c-2.0108 0-3.7344 1.7967-3.7344 3.5934 0 2.0961 1.7235 3.8928 3.7344 3.8928 2.0109 0 3.7344-1.7967 3.7344-3.8928 0-2.0961-1.7235-3.5934-3.7344-3.5934z" fill="#fff" stroke-width=".47459" style="mix-blend-mode:normal"/>
  <path d="m960.04 179.3c0 2.0961-1.7235 3.8928-3.4471 3.8928-2.0108 0-3.7343-1.7967-3.7343-3.8928 0-2.0961 1.7235-3.5934 3.7343-3.5934 1.7236 0 3.4471 1.4972 3.4471 3.5934zm-14.65-3.5934c-2.0109 0-3.4472 1.7967-3.4472 3.5934 0 2.0961 1.7236 3.8928 3.4472 3.8928 2.0109 0 3.7344-1.7967 3.7344-3.8928-0.28725-2.0961-1.7235-3.5934-3.7344-3.5934zm-11.49 0c-2.0108 0-3.7344 1.7967-3.7344 3.5934 0 2.0961 1.7235 3.8928 3.7344 3.8928 2.0109 0 3.7344-1.7967 3.7344-3.8928 0-2.0961-1.7235-3.5934-3.7344-3.5934z" fill="#a1aaa3" stroke-width=".47459" style="mix-blend-mode:normal"/>
 </g>
 <g transform="matrix(1.1278 0 0 1.1278 42.064 1469.1)">
  <path class="cls-1" transform="translate(-9.2,-38.98)" d="m13 41.9h-3.8v-2.24h10.14v2.24h-3.78v12.59h-2.56z"/>
  <path class="cls-1" transform="translate(-9.2,-38.98)" d="m21.3 49.85a2.72 2.72 0 0 0 3 2.86 7.42 7.42 0 0 0 2.7-0.46l0.37 1.8a8.67 8.67 0 0 1-3.43 0.64c-3.26 0-5.13-2.11-5.13-5.39 0-3.12 1.76-5.74 4.86-5.74s4.25 2.62 4.25 5.13a6.77 6.77 0 0 1-0.09 1.17h-6.53zm4.16-1.85c0-1.21-0.46-2.64-2-2.64s-2.07 1.52-2.16 2.64z"/>
  <path class="cls-1" transform="translate(-9.2,-38.98)" d="m37.12 54.2a7 7 0 0 1-2.66 0.48c-3.1 0-5.13-2.07-5.13-5.46a5.31 5.31 0 0 1 5.57-5.65 6 6 0 0 1 2.29 0.44l-0.44 2a3.77 3.77 0 0 0-1.75-0.39c-1.91 0-3 1.54-3 3.52 0 2.2 1.28 3.48 3 3.48a4.45 4.45 0 0 0 1.83-0.37z"/>
  <path class="cls-1" transform="translate(-9.2,-38.98)" d="m38.92 39h2.6v6.16a3.43 3.43 0 0 1 2.95-1.58c1.78 0 3.41 1.25 3.41 4.49v6.45h-2.6v-6.26c0-1.43-0.46-2.57-1.83-2.57a2 2 0 0 0-1.87 1.45 2.5 2.5 0 0 0-0.11 0.81v6.54h-2.6v-15.49z"/>
  <path class="cls-1" transform="translate(-9.2,-38.98)" d="m50.58 46.92c0-1.23 0-2.2-0.09-3.15h2.27l0.13 1.5a3.63 3.63 0 0 1 3.17-1.72c1.83 0 3.48 1.25 3.48 4.38v6.56h-2.54v-6.27c0-1.41-0.46-2.53-1.8-2.53a2 2 0 0 0-1.87 1.5 2.78 2.78 0 0 0-0.13 0.9v6.4h-2.6v-7.57z"/>
  <path class="cls-1" transform="translate(-9.2,-38.98)" d="m66.55 54.71c-2.79 0-4.91-2-4.91-5.52s2.2-5.63 5-5.63 4.86 2.16 4.86 5.5c0 4-2.62 5.65-5 5.65zm0.07-1.91c1.43 0 2.27-1.69 2.27-3.67 0-1.65-0.59-3.65-2.27-3.65s-2.31 2-2.31 3.67c0 2 0.81 3.65 2.29 3.65z"/>
  <path class="cls-1" transform="translate(-9.2,-38.98)" d="m73.64 39h2.6v15.49h-2.6z"/>
  <path class="cls-1" transform="translate(-9.2,-38.98)" d="m83.3 54.71c-2.79 0-4.91-2-4.91-5.52s2.2-5.63 5-5.63 4.86 2.16 4.86 5.5c0 4-2.62 5.65-5 5.65zm0.07-1.91c1.43 0 2.27-1.69 2.27-3.67 0-1.65-0.59-3.65-2.27-3.65s-2.31 2-2.31 3.67c0 2 0.81 3.65 2.29 3.65z"/>
  <path class="cls-1" transform="translate(-9.2,-38.98)" d="m99.34 53c0 2.33-0.44 3.78-1.47 4.75a5.64 5.64 0 0 1-3.87 1.25 7.12 7.12 0 0 1-3.37-0.75l0.55-2a5.58 5.58 0 0 0 2.82 0.75c1.65 0 2.77-0.92 2.77-3.15v-0.85a3.12 3.12 0 0 1-2.77 1.45c-2.51 0-4.16-2.27-4.16-5.24 0-3.59 2.11-5.63 4.44-5.63a3 3 0 0 1 2.72 1.54l0.11-1.34h2.27c0 0.77-0.09 1.69-0.09 3.17v6.05zm-2.6-5.08a2.71 2.71 0 0 0-0.09-0.75 2 2 0 0 0-1.92-1.58c-1.39 0-2.33 1.36-2.33 3.5 0 2 0.86 3.34 2.31 3.34a2 2 0 0 0 1.9-1.43 3.39 3.39 0 0 0 0.13-1v-2.07z"/>
  <path class="cls-1" transform="translate(-9.2,-38.98)" d="m103.69 43.78 1.72 5.76c0.2 0.68 0.4 1.45 0.53 2h0.06c0.15-0.59 0.33-1.36 0.51-2l1.5-5.76h2.71l-2.49 7.42c-1.19 3.5-2.11 5.43-3.34 6.65a5.27 5.27 0 0 1-2.66 1.45l-0.66-2.2a4.27 4.27 0 0 0 1.54-0.84 4.75 4.75 0 0 0 1.32-1.65 1 1 0 0 0 0.15-0.48 1.3 1.3 0 0 0-0.11-0.48l-3.61-9.86h2.84z"/>
  <path class="cls-2" transform="translate(-9.2,-38.98)" d="m13.18 72.4-1.12 4.09h-2.64l4.33-14.83h3.25l4.29 14.83h-2.74l-1.17-4.09zm3.81-2-1-3.59c-0.24-0.95-0.48-2-0.68-3-0.2 0.92-0.44 2.07-0.66 3l-1 3.59h3.35z"/>
  <path class="cls-2" transform="translate(-9.2,-38.98)" d="m23 69.1c0-1.3 0-2.38-0.09-3.32h2.24l0.11 1.91h0.09a3 3 0 0 1 2.68-2.13 4.12 4.12 0 0 1 0.59 0v2.51a3.06 3.06 0 0 0-0.7-0.07 2.3 2.3 0 0 0-2.27 2 5.13 5.13 0 0 0-0.07 0.88v5.59h-2.58z"/>
  <path class="cls-2" transform="translate(-9.2,-38.98)" d="m33.8 63v2.73h2.42v1.91h-2.42v5c0 1.3 0.4 1.87 1.3 1.87a3 3 0 0 0 0.9-0.07l0.07 2a6.25 6.25 0 0 1-1.85 0.24 2.89 2.89 0 0 1-2.18-0.81 4.1 4.1 0 0 1-0.84-3v-5.18h-1.41v-1.91h1.45v-2z"/>
  <path class="cls-2" transform="translate(-9.2,-38.98)" d="m37.93 74.09a5.34 5.34 0 0 0 2.46 0.7c1.08 0 1.61-0.48 1.61-1.21s-0.4-1.1-1.63-1.61c-1.94-0.79-2.71-1.89-2.71-3.12 0-1.87 1.5-3.3 3.83-3.3a5.5 5.5 0 0 1 2.6 0.62l-0.53 1.83a4.09 4.09 0 0 0-2-0.57 1.19 1.19 0 0 0-1.41 1.12c0 0.66 0.44 1 1.69 1.52 1.8 0.75 2.66 1.76 2.66 3.26 0 2-1.52 3.34-4.11 3.34a6 6 0 0 1-2.95-0.7z"/>
  <path class="cls-3" transform="translate(-9.2,-38.98)" d="m50.76 73.67a6.57 6.57 0 0 0 3.19 0.84c1.65 0 2.57-0.81 2.57-2s-0.75-1.8-2.44-2.53c-2.2-0.92-3.63-2.29-3.63-4.27 0-2.38 1.87-4.22 5-4.22a7.07 7.07 0 0 1 3.15 0.66l-0.6 2.13a5.66 5.66 0 0 0-2.64-0.64c-1.61 0-2.31 0.9-2.31 1.78 0 1.14 0.79 1.67 2.64 2.49 2.35 1.06 3.45 2.4 3.45 4.36 0 2.46-1.83 4.42-5.32 4.42a7.89 7.89 0 0 1-3.59-0.84z"/>
  <path class="cls-3" transform="translate(-9.2,-38.98)" d="m68.6 76.2a7 7 0 0 1-2.66 0.48c-3.1 0-5.13-2.07-5.13-5.46a5.31 5.31 0 0 1 5.57-5.65 6 6 0 0 1 2.29 0.44l-0.44 2a3.77 3.77 0 0 0-1.78-0.37c-1.91 0-3 1.54-3 3.52 0 2.2 1.28 3.48 3 3.48a4.44 4.44 0 0 0 1.83-0.37z"/>
  <path class="cls-3" transform="translate(-9.2,-38.98)" d="m71.68 64.26a1.37 1.37 0 0 1-1.41-1.43 1.39 1.39 0 0 1 1.45-1.43 1.36 1.36 0 0 1 1.43 1.43 1.38 1.38 0 0 1-1.45 1.43zm-1.28 12.23v-10.71h2.6v10.71z"/>
  <path class="cls-3" transform="translate(-9.2,-38.98)" d="m77.62 71.85a2.72 2.72 0 0 0 3 2.86 7.43 7.43 0 0 0 2.66-0.46l0.37 1.8a8.65 8.65 0 0 1-3.43 0.64c-3.26 0-5.13-2.11-5.13-5.39 0-3.12 1.76-5.74 4.86-5.74s4.25 2.62 4.25 5.13a6.77 6.77 0 0 1-0.09 1.17h-6.49zm4.16-1.85c0-1.21-0.46-2.64-2-2.64s-2.09 1.5-2.18 2.64h4.16z"/>
  <path class="cls-3" transform="translate(-9.2,-38.98)" d="m86.24 68.92c0-1.23 0-2.2-0.09-3.15h2.27l0.13 1.5a3.63 3.63 0 0 1 3.17-1.72c1.83 0 3.48 1.25 3.48 4.38v6.56h-2.6v-6.27c0-1.41-0.46-2.53-1.8-2.53a2 2 0 0 0-1.8 1.5 2.76 2.76 0 0 0-0.13 0.9v6.4h-2.6v-7.57z"/>
  <path class="cls-3" transform="translate(-9.2,-38.98)" d="m105.1 76.2a6.94 6.94 0 0 1-2.66 0.48c-3.1 0-5.13-2.07-5.13-5.46a5.31 5.31 0 0 1 5.57-5.65 6 6 0 0 1 2.29 0.44l-0.44 2a3.78 3.78 0 0 0-1.78-0.37c-1.91 0-3 1.54-3 3.52 0 2.2 1.28 3.48 3 3.48a4.43 4.43 0 0 0 1.83-0.37z"/>
  <path class="cls-3" transform="translate(-9.2,-38.98)" d="m108.66 71.85a2.72 2.72 0 0 0 3 2.86 7.42 7.42 0 0 0 2.66-0.46l0.37 1.8a8.66 8.66 0 0 1-3.43 0.64c-3.26 0-5.13-2.11-5.13-5.39 0-3.12 1.76-5.74 4.86-5.74s4.25 2.62 4.25 5.13a6.87 6.87 0 0 1-0.09 1.17h-6.51zm4.16-1.85c0-1.21-0.46-2.64-2-2.64s-2.09 1.5-2.18 2.64h4.16z"/>
  <path class="cls-3" transform="translate(-9.2,-38.98)" d="m117.15 74.09a5.34 5.34 0 0 0 2.46 0.7c1.08 0 1.61-0.48 1.61-1.21s-0.4-1.1-1.63-1.61c-1.94-0.79-2.71-1.89-2.71-3.12 0-1.87 1.5-3.3 3.83-3.3a5.49 5.49 0 0 1 2.6 0.62l-0.53 1.83a4.1 4.1 0 0 0-2-0.57 1.2 1.2 0 0 0-1.41 1.12c0 0.66 0.44 1 1.69 1.52 1.8 0.75 2.66 1.76 2.66 3.26 0 2-1.52 3.34-4.12 3.34a6 6 0 0 1-2.95-0.7z"/>
  <path transform="translate(-9.2,-38.98)" d="m12.9 88.63h-3.59v-2.77h10.43v2.77h-3.63v12.06h-3.21z"/>
  <path transform="translate(-9.2,-38.98)" d="m25.3 85.86v5.79h4.77v-5.79h3.21v14.83h-3.2v-6.2h-4.78v6.21h-3.21v-14.84z"/>
  <path transform="translate(-9.2,-38.98)" d="m41.58 85.86h3.19v6.6h0.07q0.43-0.89 0.92-1.72l2.93-4.88h3.85l-4.44 6.36 4.64 8.47h-3.68l-3.21-6.32-1.08 1.45v4.86h-3.19z"/>
  <path transform="translate(-9.2,-38.98)" d="m58.88 100.91c-3 0-5.13-2.07-5.13-5.54s2.25-5.66 5.25-5.66 5 2.22 5 5.52c0 4.09-2.68 5.68-5.17 5.68zm-2.16-12.5a1.51 1.51 0 0 1 0-3 1.51 1.51 0 0 1 0 3zm2.28 10.17c1.19 0 1.85-1.45 1.85-3.28 0-1.56-0.51-3.26-1.85-3.26s-2 1.7-2 3.26c0 1.85 0.64 3.28 1.91 3.28zm2.1-10.17a1.51 1.51 0 0 1 0-3 1.43 1.43 0 0 1 1.43 1.5 1.45 1.45 0 0 1-1.43 1.52z"/>
  <path transform="translate(-9.2,-38.98)" d="m66.66 85.18h3.21v15.51h-3.21z"/>
  <path transform="translate(-9.2,-38.98)" d="m73 93.32c0-1.3 0-2.4-0.09-3.39h2.77l0.15 1.41h0.07a3.68 3.68 0 0 1 3.13-1.63c2.16 0 3.56 1.52 3.56 4.45v6.54h-3.17v-6.21c0-1.23-0.42-2.16-1.52-2.16a1.61 1.61 0 0 0-1.52 1.17 2.56 2.56 0 0 0-0.13 0.88v6.32h-3.25z"/>
 </g>
 <g fill="#fff">
  <path class="shp4" d="m38 1695.8h1502v284.21h-1502z" opacity=".502" stroke-width=".98249"/>
  <path class="shp4" d="m40 329.99h1040v171.77h-1040z" opacity=".502" stroke-width=".63556"/>
  <path class="shp4" d="m40 800h1040v300.92h-1040z" opacity=".502" stroke-width=".84123"/>
 </g>
 <path d="m215.17 407.92c0 5.4046-4.7241 10.026-10.249 10.026h-22.843c3.7381 3.9 4.197 11.385-1.441 16.23 3.2686 5.2226 0.49116 12.129-3.7632 14.256 2.053 11.242-5.0205 16.303-16.609 16.303-0.6282 0-3.0371-0.0464-3.6603-0.0446-14.177 0.0384-17.591-7.1067-28.306-8.7652-2.6704-0.41338-4.6369-2.7203-4.6369-5.4227v-39.239l2e-3 -2.2e-4c4e-3 -4.2016 2.4265-8.2103 6.5116-10.03 6.6082-2.9726 21.827-11.218 24.6-17.689 1.7837-4.1622 4.892-6.6535 9.1507-6.6553 7.8289-5e-3 13.212 8.0293 10.093 15.306-0.81967 1.9123-1.9015 3.8136-3.2378 5.7004h34.14c5.3646 0 10.249 4.6996 10.249 10.026zm-95.167 0.0797v43.923c0 3.0323-2.4581 5.4904-5.4904 5.4904h-10.981c-3.0323 0-5.4904-2.4581-5.4904-5.4904v-43.923c0-3.0323 2.4581-5.4904 5.4904-5.4904h10.981c3.0323 0 5.4904 2.4581 5.4904 5.4904zm-6.4055 38.433c0-2.527-2.0484-4.5753-4.5754-4.5753-2.527 0-4.5754 2.0484-4.5754 4.5753 0 2.527 2.0484 4.5754 4.5754 4.5754 2.527 0 4.5754-2.0484 4.5754-4.5754z" stroke-width=".22877"/>
 <path d="m160.75 610.39h-59.379c-5.4355 0-9.8416 4.4061-9.8416 9.8416v59.379c0 5.4355 4.4061 9.8416 9.8416 9.8416h59.379c5.4355 0 9.8416-4.4061 9.8416-9.8416v-59.379c0-5.4355-4.4061-9.8416-9.8416-9.8416zm38.996 7.7621-22.566 15.565v32.407l22.566 15.545c4.3649 3.006 10.377-0.0618 10.377-5.312v-52.893c0-5.2296-5.9914-8.318-10.377-5.312z" stroke-width=".20589"/>
 <g font-family="sans-serif">
  <text x="252.72162" y="389.46814" font-size="37.333px" style="line-height:1.45" xml:space="preserve"><tspan x="252.72162" y="389.46814" font-family="sans-serif" font-size="37.333px" font-weight="bold">Nachweisbare Einwilligung einholen</tspan></text>
  <text transform="scale(.98343 1.0168)" x="254.73926" y="392.02371" font-size="23.602px" stroke-width=".98344" style="line-height:1.45" xml:space="preserve"><tspan x="254.73926" y="392.02371"/><tspan x="254.73926" y="426.24719">□ Ich bin mit Streaming und Aufzeichnung meiner Stimme in Bild </tspan><tspan x="254.73926" y="460.47067">   und Ton über Zoom einverstanden.</tspan><tspan x="254.73926" y="494.69415"/></text>
  <text x="250.71866" y="560.36127" font-size="37.333px" style="line-height:1.45" xml:space="preserve"><tspan x="250.71866" y="560.36127" font-family="sans-serif" font-size="37.333px" font-weight="bold">Videoaufzeichnung (mit Bild)</tspan></text>
  <text transform="scale(.98343 1.0168)" x="253.14212" y="562.67969" font-size="23.602px" stroke-width=".98344" style="line-height:1.45" xml:space="preserve"><tspan x="253.14212" y="562.67969"/><tspan x="253.14212" y="596.9032">Unter Einstellungen    &gt;&gt; Aufzeichnungen     </tspan><tspan x="253.14212" y="631.12665"> ✓ Für Videoeditor von Dritten optimieren (für Postproduktion)</tspan><tspan x="253.14212" y="665.61383"> ✓ Temporäre Aufzeichungsdateien behalten (falls es Probleme gibt)</tspan><tspan x="253.14212" y="700.10101"/></text>
 </g>
 <path d="m502.07 602.85-1.6253-0.93854c0.16405-0.88513 0.16405-1.7932 0-2.6783l1.6253-0.93856c0.18693-0.10683 0.27086-0.32811 0.20983-0.53412-0.42349-1.3582-1.1446-2.5867-2.0869-3.6092-0.14499-0.15643-0.38151-0.19457-0.56464-0.0878l-1.6253 0.93854c-0.68293-0.58753-1.4689-1.0416-2.3196-1.3391v-1.8733c0-0.21365-0.1488-0.40059-0.35863-0.44638-1.4002-0.31284-2.8347-0.29758-4.1662 0-0.20984 0.0457-0.35864 0.23273-0.35864 0.44638v1.8771c-0.84697 0.30141-1.6329 0.75541-2.3196 1.3392l-1.6215-0.93855c-0.18695-0.10682-0.41968-0.0725-0.56466 0.0878-0.94235 1.0187-1.6634 2.2472-2.0869 3.6092-0.0649 0.206 0.0229 0.42729 0.20984 0.53412l1.6253 0.93854c-0.16407 0.88512-0.16407 1.7931 0 2.6783l-1.6253 0.93854c-0.18695 0.10683-0.27089 0.32812-0.20984 0.53412 0.42349 1.3582 1.1446 2.5867 2.0869 3.6092 0.14498 0.15642 0.38152 0.19457 0.56466 0.0878l1.6253-0.93856c0.68291 0.58756 1.4688 1.0416 2.3196 1.3392v1.8771c0 0.21366 0.1488 0.4006 0.35863 0.44639 1.4002 0.31284 2.8347 0.29758 4.1662 0 0.20984-0.0457 0.35863-0.23273 0.35863-0.44639v-1.8771c0.84697-0.3014 1.6329-0.75541 2.3196-1.3391l1.6253 0.93855c0.18693 0.10682 0.41967 0.0725 0.56464-0.0878 0.94235-1.0187 1.6634-2.2472 2.0869-3.6092 0.0572-0.20983-0.0266-0.4311-0.21365-0.53793zm-8.8284 0.77449c-1.6825 0-3.0522-1.3697-3.0522-3.0522 0-1.6825 1.3697-3.0522 3.0522-3.0522 1.6825 0 3.0522 1.3697 3.0522 3.0522 0 1.6825-1.3696 3.0522-3.0522 3.0522z" stroke-width=".038152"/>
 <path d="m184.27 939.73h-4.067c-2.247 0-4.067 1.82-4.067 4.067v12.201c0 19.013-16.392 34.269-35.787 32.378-16.903-1.6496-29.285-16.845-29.285-33.827v-10.752c0-2.247-1.82-4.067-4.067-4.067h-4.067c-2.247 0-4.067 1.82-4.067 4.067v10.208c0 22.785 16.26 43.097 38.636 46.183v8.6805h-14.234c-2.247 0-4.067 1.82-4.067 4.067v4.0669c0 2.2471 1.82 4.067 4.067 4.067h40.67c2.247 0 4.067-1.8199 4.067-4.067v-4.0669c0-2.247-1.82-4.067-4.067-4.067h-14.234v-8.5838c21.786-2.9893 38.636-21.69 38.636-44.287v-12.201c0-2.247-1.82-4.067-4.067-4.067zm-40.67 40.67c13.477 0 24.402-10.925 24.402-24.402h-21.69c-1.4972 0-2.7122-0.90999-2.7122-2.0335v-4.067c0-1.1235 1.215-2.0335 2.7122-2.0335h21.69v-8.134h-21.69c-1.4972 0-2.7122-0.90999-2.7122-2.0335v-4.067c0-1.1235 1.215-2.0335 2.7122-2.0335h21.69v-8.134h-21.69c-1.4972 0-2.7122-0.90999-2.7122-2.0335v-4.067c0-1.1235 1.215-2.0335 2.7122-2.0335h21.69c0-13.477-10.925-24.402-24.402-24.402s-24.402 10.925-24.402 24.402v40.67c0 13.477 10.925 24.402 24.402 24.402z" stroke-width=".25419"/>
 <text x="250.71866" y="866.36127" font-family="sans-serif" font-size="37.333px" style="line-height:1.45" xml:space="preserve"><tspan x="250.71866" y="866.36127" font-family="sans-serif" font-size="37.333px" font-weight="bold">Audioaufzeichnung (ohne Bild)</tspan></text>
 <text transform="scale(.98343 1.0168)" x="250.48856" y="860.18347" font-family="sans-serif" font-size="23.602px" stroke-width=".98344" style="line-height:1.45" xml:space="preserve"><tspan x="250.48856" y="860.18347"/><tspan x="250.48856" y="894.40698">Unter Einstellungen    &gt;&gt; Aufzeichnungen     </tspan><tspan x="250.48856" y="928.63043"> ✓ Eine seperate Audiodatei für jeden Teilnehmer aufnehmen</tspan><tspan x="250.48856" y="963.11761"> ✓ Temporäre Aufzeichungsdateien behalten (falls es Probleme gibt)</tspan><tspan x="250.48856" y="997.6048"/></text>
 <path d="m502.07 602.85-1.6253-0.93854c0.16405-0.88513 0.16405-1.7932 0-2.6783l1.6253-0.93856c0.18693-0.10683 0.27086-0.32811 0.20983-0.53412-0.42349-1.3582-1.1446-2.5867-2.0869-3.6092-0.14499-0.15643-0.38151-0.19457-0.56464-0.0878l-1.6253 0.93854c-0.68293-0.58753-1.4689-1.0416-2.3196-1.3391v-1.8733c0-0.21365-0.1488-0.40059-0.35863-0.44638-1.4002-0.31284-2.8347-0.29758-4.1662 0-0.20984 0.0457-0.35864 0.23273-0.35864 0.44638v1.8771c-0.84697 0.30141-1.6329 0.75541-2.3196 1.3392l-1.6215-0.93855c-0.18695-0.10682-0.41968-0.0725-0.56466 0.0878-0.94235 1.0187-1.6634 2.2472-2.0869 3.6092-0.0649 0.206 0.0229 0.42729 0.20984 0.53412l1.6253 0.93854c-0.16407 0.88512-0.16407 1.7931 0 2.6783l-1.6253 0.93854c-0.18695 0.10683-0.27089 0.32812-0.20984 0.53412 0.42349 1.3582 1.1446 2.5867 2.0869 3.6092 0.14498 0.15642 0.38152 0.19457 0.56466 0.0878l1.6253-0.93856c0.68291 0.58756 1.4688 1.0416 2.3196 1.3392v1.8771c0 0.21366 0.1488 0.4006 0.35863 0.44639 1.4002 0.31284 2.8347 0.29758 4.1662 0 0.20984-0.0457 0.35863-0.23273 0.35863-0.44639v-1.8771c0.84697-0.3014 1.6329-0.75541 2.3196-1.3391l1.6253 0.93855c0.18693 0.10682 0.41967 0.0725 0.56464-0.0878 0.94235-1.0187 1.6634-2.2472 2.0869-3.6092 0.0572-0.20983-0.0266-0.4311-0.21365-0.53793zm-8.8284 0.77449c-1.6825 0-3.0522-1.3697-3.0522-3.0522 0-1.6825 1.3697-3.0522 3.0522-3.0522 1.6825 0 3.0522 1.3697 3.0522 3.0522 0 1.6825-1.3696 3.0522-3.0522 3.0522z" stroke-width=".038152"/>
 <path d="m501.27 905.18-1.6253-0.9385c0.16405-0.8851 0.16405-1.7932 0-2.6783l1.6253-0.9385c0.18693-0.1068 0.27086-0.3281 0.20983-0.5341-0.42349-1.3583-1.1446-2.5868-2.0869-3.6092-0.14499-0.1564-0.38151-0.1946-0.56464-0.088l-1.6253 0.9385c-0.68293-0.5875-1.4689-1.0415-2.3196-1.3391v-1.8733c0-0.2136-0.1488-0.4006-0.35863-0.4464-1.4002-0.3128-2.8347-0.2975-4.1662 0-0.20984 0.046-0.35864 0.2328-0.35864 0.4464v1.8771c-0.84697 0.3014-1.6329 0.7554-2.3196 1.3391l-1.6215-0.9385c-0.18695-0.1068-0.41968-0.072-0.56466 0.088-0.94235 1.0187-1.6634 2.2472-2.0869 3.6092-0.0649 0.206 0.0229 0.4273 0.20984 0.5341l1.6253 0.9386c-0.16407 0.8851-0.16407 1.7931 0 2.6782l-1.6253 0.9386c-0.18695 0.1068-0.27089 0.3281-0.20984 0.5341 0.42349 1.3582 1.1446 2.5867 2.0869 3.6092 0.14498 0.1564 0.38152 0.1946 0.56466 0.088l1.6253-0.9386c0.68291 0.5876 1.4688 1.0416 2.3196 1.3392v1.877c0 0.2137 0.1488 0.4006 0.35863 0.4464 1.4002 0.3129 2.8347 0.2976 4.1662 0 0.20984-0.046 0.35863-0.2327 0.35863-0.4464v-1.877c0.84697-0.3014 1.6329-0.7554 2.3196-1.3392l1.6253 0.9386c0.18693 0.1068 0.41967 0.073 0.56464-0.088 0.94235-1.0187 1.6634-2.2472 2.0869-3.6092 0.0572-0.2098-0.0266-0.4311-0.21365-0.5379zm-8.8284 0.7745c-1.6825 0-3.0522-1.3696-3.0522-3.0521s1.3697-3.0522 3.0522-3.0522c1.6825 0 3.0522 1.3697 3.0522 3.0522s-1.3696 3.0521-3.0522 3.0521z" stroke-width=".038152"/>
 <text x="246.54492" y="1164.6425" font-family="sans-serif" font-size="37.333px" style="line-height:1.45" xml:space="preserve"><tspan x="246.54492" y="1164.6425" font-family="sans-serif" font-size="37.333px" font-weight="bold">Sonstige Tipps</tspan></text>
 <text transform="scale(.98343 1.0168)" x="245.08514" y="1159.9592" font-family="sans-serif" font-size="23.602px" stroke-width=".98344" style="line-height:1.45" xml:space="preserve"><tspan x="245.08514" y="1159.9592"/><tspan x="245.08514" y="1194.1827"> • Die Aufzeichnung lokal und nicht in der Cloud speichern</tspan><tspan x="245.08514" y="1228.4062"> • Ruhige Arbeitsumgebung, die zudem gut ausgeleuchtet ist</tspan><tspan x="245.08514" y="1262.6296"> • Alle unnötigen Programme auf dem Aufnahmegerät ausschalten</tspan><tspan x="245.08514" y="1296.8531"> • Der Hintergrund sollte ablenkungsfrei mit wenig Kontrasten sein</tspan><tspan x="245.08514" y="1331.0767"> • Mit Gästen zu Beginn einen Lautstärkenabgleich machen</tspan><tspan x="245.08514" y="1365.3002"> • Bequeme Sitz-oder Stehposition einnehmen</tspan><tspan x="245.08514" y="1399.5236"/></text>
 <g transform="translate(1.6253 108.94)">
  <text transform="scale(.98343 1.0168)" x="249.21658" y="861.93933" font-family="sans-serif" stroke-width=".98344" style="line-height:1.45" xml:space="preserve"><tspan x="249.21658" y="861.93933" font-size="23.602px"/><tspan x="249.21658" y="896.56531" font-size="24px">Unter Einstellungen    &gt;&gt; Audio   </tspan><tspan x="249.21658" y="931.3653" font-size="24px">✘ Mikrofonlautstärke automatisch anpassen (besser selbst pegeln)</tspan><tspan x="249.21658" y="966.03094" font-size="24px"/></text>
  <path d="m641.86 893.08c-5.9975 0-10.852 4.8536-10.852 10.852v2.0348a1.3565 1.3565 0 0 0 0.74987 1.2133l0.60971 0.30483c0.0852 2.5473 2.1768 4.5862 4.7448 4.5862h1.0174c0.56188 0 1.0174-0.45547 1.0174-1.0174v-7.4608c0-0.56188-0.4555-1.0174-1.0174-1.0174h-1.0174c-1.3286 0-2.5295 0.54593-3.3913 1.4255v-0.0689c0-4.4879 3.6512-8.1391 8.1391-8.1391 4.4879 0 8.1391 3.6512 8.1391 8.1391v0.0689c-0.86178-0.87953-2.0627-1.4255-3.3913-1.4255h-1.0174c-0.56188 0-1.0174 0.45548-1.0174 1.0174v7.4608c0 0.5619 0.4555 1.0174 1.0174 1.0174h1.0174c2.568 0 4.6595-2.0389 4.7448-4.5862l0.60968-0.30483a1.3565 1.3565 0 0 0 0.7499-1.2133v-2.0348c0-5.9974-4.8536-10.852-10.852-10.852z" stroke-width=".042391"/>
  <path d="m502 904-1.6253-0.9385c0.16405-0.8851 0.16405-1.7932 0-2.6783l1.6253-0.9385c0.18693-0.1068 0.27086-0.3281 0.20983-0.5341-0.42349-1.3583-1.1446-2.5868-2.0869-3.6092-0.14499-0.1564-0.38151-0.1946-0.56464-0.088l-1.6253 0.9385c-0.68293-0.5875-1.4689-1.0415-2.3196-1.3391v-1.8733c0-0.2136-0.1488-0.4006-0.35863-0.4464-1.4002-0.3128-2.8347-0.2975-4.1662 0-0.20984 0.046-0.35864 0.2328-0.35864 0.4464v1.8771c-0.84697 0.3014-1.6329 0.7554-2.3196 1.3391l-1.6215-0.9385c-0.18695-0.1068-0.41968-0.072-0.56466 0.088-0.94235 1.0187-1.6634 2.2472-2.0869 3.6092-0.0649 0.206 0.0229 0.4273 0.20984 0.5341l1.6253 0.9386c-0.16407 0.8851-0.16407 1.7931 0 2.6782l-1.6253 0.9386c-0.18695 0.1068-0.27089 0.3281-0.20984 0.5341 0.42349 1.3582 1.1446 2.5867 2.0869 3.6092 0.14498 0.1564 0.38152 0.1946 0.56466 0.088l1.6253-0.9386c0.68291 0.5876 1.4688 1.0416 2.3196 1.3392v1.877c0 0.2137 0.1488 0.4006 0.35863 0.4464 1.4002 0.3129 2.8347 0.2976 4.1662 0 0.20984-0.046 0.35863-0.2327 0.35863-0.4464v-1.877c0.84697-0.3014 1.6329-0.7554 2.3196-1.3392l1.6253 0.9386c0.18693 0.1068 0.41967 0.073 0.56464-0.088 0.94235-1.0187 1.6634-2.2472 2.0869-3.6092 0.0572-0.2098-0.0266-0.4311-0.21365-0.5379zm-8.8284 0.7745c-1.6825 0-3.0522-1.3696-3.0522-3.0521s1.3697-3.0522 3.0522-3.0522c1.6825 0 3.0522 1.3697 3.0522 3.0522s-1.3696 3.0521-3.0522 3.0521z" stroke-width=".038152"/>
 </g>
 <path d="m760 592a5.4428 5.4428 0 1 0 5.4428 5.4428 5.4428 5.4428 0 0 0-5.4428-5.4428zm0 6.6988a1.256 1.256 0 1 1 1.256-1.256 1.256 1.256 0 0 1-1.256 1.256zm0-14.235c-7.1698 0-12.979 5.8092-12.979 12.979 0 7.1699 5.8092 12.979 12.979 12.979 7.1699 0 12.979-5.8092 12.979-12.979 0-7.1698-5.8092-12.979-12.979-12.979zm0 19.678a6.6988 6.6988 0 1 1 6.6988-6.6988 6.6988 6.6988 0 0 1-6.6988 6.6988z" stroke-width=".052335"/>
 <path d="m760 893.86a5.4428 5.4428 0 1 0 5.4428 5.4428 5.4428 5.4428 0 0 0-5.4428-5.4428zm0 6.6988a1.256 1.256 0 1 1 1.256-1.256 1.256 1.256 0 0 1-1.256 1.256zm0-14.235c-7.1698 0-12.979 5.8092-12.979 12.979 0 7.1699 5.8092 12.979 12.979 12.979 7.1699 0 12.979-5.8092 12.979-12.979 0-7.1698-5.8092-12.979-12.979-12.979zm0 19.678a6.6988 6.6988 0 1 1 6.6988-6.6988 6.6988 6.6988 0 0 1-6.6988 6.6988z" stroke-width=".052335"/>
 <text font-family="sans-serif" font-size="192px" style="line-height:1.45;shape-inside:url(#rect18305);white-space:pre" xml:space="preserve"/>
 <text transform="scale(.98343 1.0168)" x="251.31841" y="676.90424" font-family="sans-serif" stroke-width=".98344" style="line-height:1.45" xml:space="preserve"><tspan x="251.31841" y="676.90424" font-size="23.602px"/><tspan x="251.31841" y="711.53021" font-size="24px">Unter Einstellungen    &gt;&gt; Video   </tspan><tspan x="251.31841" y="746.3302" font-size="24px"> ✓ HD (bessere Auflösung für das eigene Videobild)</tspan><tspan x="251.31841" y="780.99585" font-size="24px"/></text>
 <path d="m504.07 715.85-1.6253-0.9385c0.16405-0.8851 0.16405-1.7932 0-2.6783l1.6253-0.9385c0.18693-0.1068 0.27086-0.3281 0.20983-0.5341-0.42349-1.3583-1.1446-2.5868-2.0869-3.6092-0.14499-0.1564-0.38151-0.1946-0.56464-0.088l-1.6253 0.9385c-0.68293-0.5875-1.4689-1.0415-2.3196-1.3391v-1.8733c0-0.2136-0.1488-0.4006-0.35863-0.4464-1.4002-0.3128-2.8347-0.2975-4.1662 0-0.20984 0.046-0.35864 0.2328-0.35864 0.4464v1.8771c-0.84697 0.3014-1.6329 0.7554-2.3196 1.3391l-1.6215-0.9385c-0.18695-0.1068-0.41968-0.072-0.56466 0.088-0.94235 1.0187-1.6634 2.2472-2.0869 3.6092-0.0649 0.206 0.0229 0.4273 0.20984 0.5341l1.6253 0.9386c-0.16407 0.8851-0.16407 1.7931 0 2.6782l-1.6253 0.9386c-0.18695 0.1068-0.27089 0.3281-0.20984 0.5341 0.42349 1.3582 1.1446 2.5867 2.0869 3.6092 0.14498 0.1564 0.38152 0.1946 0.56466 0.088l1.6253-0.9386c0.68291 0.5876 1.4688 1.0416 2.3196 1.3392v1.877c0 0.2137 0.1488 0.4006 0.35863 0.4464 1.4002 0.3129 2.8347 0.2976 4.1662 0 0.20984-0.046 0.35863-0.2327 0.35863-0.4464v-1.877c0.84697-0.3014 1.6329-0.7554 2.3196-1.3392l1.6253 0.9386c0.18693 0.1068 0.41967 0.073 0.56464-0.088 0.94235-1.0187 1.6634-2.2472 2.0869-3.6092 0.0572-0.2098-0.0266-0.4311-0.21365-0.5379zm-8.8284 0.7745c-1.6825 0-3.0522-1.3696-3.0522-3.0521s1.3697-3.0522 3.0522-3.0522c1.6825 0 3.0522 1.3697 3.0522 3.0522s-1.3696 3.0521-3.0522 3.0521z" stroke-width=".038152"/>
 <path d="m143.77 1193.5c-34.813 0-63.038 28.236-63.038 63.038 0 34.823 28.226 63.038 63.038 63.038 34.813 0 63.038-28.215 63.038-63.038 0-34.803-28.226-63.038-63.038-63.038zm0 27.961c5.8961 0 10.676 4.7796 10.676 10.676 0 5.8963-4.7797 10.676-10.676 10.676s-10.676-4.7796-10.676-10.676c0-5.8961 4.7797-10.676 10.676-10.676zm14.234 64.563c0 1.6845-1.3657 3.0502-3.0502 3.0502h-22.368c-1.6845 0-3.0502-1.3657-3.0502-3.0502v-6.1005c0-1.6845 1.3657-3.0501 3.0502-3.0501h3.0502v-16.268h-3.0502c-1.6845 0-3.0502-1.3656-3.0502-3.0502v-6.1004c0-1.6845 1.3657-3.0503 3.0502-3.0503h16.268c1.6845 0 3.0502 1.3658 3.0502 3.0503v25.419h3.0502c1.6845 0 3.0502 1.3656 3.0502 3.0501z" stroke-width=".25419"/>
 <g font-family="sans-serif" stroke-width=".4783">
  <text x="215.88524" y="1492.3408" font-size="30.611px" style="line-height:1.45" xml:space="preserve"><tspan x="215.88524" y="1492.3408" font-family="sans-serif" font-size="30.611px" font-weight="bold" stroke-width=".4783">ZLE</tspan></text>
  <text x="217.23424" y="1515.9015" font-size="20.407px" style="line-height:1.45" xml:space="preserve"><tspan x="217.23424" y="1515.9015">Zentrum für </tspan><tspan x="217.23424" y="1649.0593"/></text>
  <text x="217.90877" y="1538.7009" font-size="20.407px" style="line-height:1.45" xml:space="preserve"><tspan x="217.90877" y="1538.7009" font-size="20.407px" stroke-width=".4783">Lehrentwicklung</tspan></text>
 </g>
 <g transform="matrix(1.455 0 0 1.4548 157.3 1477.2)">
  <path id="path3817_1_" d="m181.97 0.51074 114.06 0.20264c1.5938 0 3.0176-0.23633 3.0176 3.1807l-0.13965 37.567h-119.82v-37.707c0-1.685 0.16309-3.2436 2.8784-3.2436z" fill="#aab2ab" nodetypes="ccccccc"/>
  <path d="m297.3 0h-116.23c-1.2466 0-2.2612 1.0142-2.2612 2.2607v39.497c0 0.28174 0.229 0.51025 0.51074 0.51025h119.73c0.28174 0 0.51074-0.22852 0.51074-0.51025v-39.497c-1e-5 -1.2466-1.0146-2.2607-2.2617-2.2607zm-116.23 1.0215h116.23c0.68408 0 1.2402 0.55566 1.2402 1.2393v27.45h-83.344c-3.0449 5.5059-8.9111 9.2441-15.644 9.2441-6.7354 0-12.6-3.7349-15.644-9.2441h-4.0776v-27.45c1e-5 -0.68359 0.55616-1.2393 1.2398-1.2393z"/>
  <g enable-background="new    " fill="#fff">
   <path d="m253.08 32.956c0.31738 0 0.60742 0.02832 0.87012 0.08398 0.26172 0.05566 0.48535 0.14746 0.67285 0.27539 0.18652 0.12695 0.33203 0.29688 0.43457 0.50781 0.10254 0.21191 0.1543 0.47266 0.1543 0.78418 0 0.33594-0.0762 0.61523-0.22949 0.83887-0.15234 0.22461-0.37891 0.40723-0.67773 0.55078 0.41211 0.11816 0.71973 0.3252 0.92285 0.62109s0.30469 0.65234 0.30469 1.0693c0 0.33594-0.0654 0.62695-0.19629 0.87305-0.13086 0.24512-0.30762 0.44629-0.52832 0.60156-0.22168 0.15625-0.47461 0.27148-0.75781 0.3457-0.28418 0.0752-0.5752 0.1123-0.875 0.1123h-3.2364v-6.6641h3.1416zm-0.1875 2.6953c0.26172 0 0.47656-0.0625 0.64551-0.18652 0.16797-0.12402 0.25195-0.3252 0.25195-0.60449 0-0.15527-0.0283-0.2832-0.084-0.38184-0.0566-0.09961-0.13086-0.17676-0.22461-0.2334-0.0937-0.05566-0.20117-0.09473-0.32227-0.11621s-0.24805-0.03223-0.37793-0.03223h-1.374v1.5547zm0.0859 2.8281c0.14355 0 0.28027-0.01367 0.41113-0.04199s0.24609-0.0752 0.34668-0.13965c0.0996-0.06543 0.17871-0.1543 0.23828-0.2666 0.0596-0.11133 0.0889-0.25488 0.0889-0.42871 0-0.3418-0.0967-0.58594-0.29004-0.73242-0.19336-0.14551-0.44922-0.21875-0.7666-0.21875h-1.5996v1.8281z"/>
   <path d="m255.79 32.956h1.6436l1.5606 2.6318 1.5508-2.6318h1.6338l-2.4736 4.1064v2.5576h-1.4688v-2.5947z"/>
  </g>
  <g id="g5908_1_" transform="matrix(.87292 0 0 .87292 50.125 143.21)">
   <path id="path5906_1_" cx="296.35416" cy="264.3577" rx="22.939548" ry="22.939548" d="m186.9-141.46c6e-3 8.6808-7.0279 15.722-15.708 15.727-8.6802 6e-3 -15.722-7.0273-15.727-15.708v-0.019c-5e-3 -8.6808 7.0279-15.722 15.708-15.727 8.6814-6e-3 15.722 7.0273 15.727 15.708v0.0184z" fill="#fff" type="arc"/>
   <g id="g5706_1_" transform="translate(-289.62 99.065)">
    <path id="path5708_1_" d="m473.58-253.33c3.4854 3.4854 5.2284 7.7539 5.2284 12.802 0 5.0494-1.7128 9.272-5.1383 12.668-3.6353 3.5766-7.9318 5.3643-12.889 5.3643-4.8978 0-9.1199-1.7732-12.665-5.3195-3.5458-3.5458-5.3184-7.783-5.3184-12.713 0-4.9286 1.7726-9.196 5.3184-12.802 3.4552-3.4865 7.6773-5.2295 12.665-5.2295 5.0483-1e-5 9.314 1.743 12.799 5.2295zm-23.118 2.3448c-2.9467 2.9764-4.4195 6.4629-4.4195 10.462 0 3.9984 1.4583 7.4553 4.3742 10.371 2.9165 2.9165 6.3885 4.3742 10.417 4.3742s7.5302-1.4722 10.507-4.4184c2.8259-2.7364 4.2394-6.1771 4.2394-10.326 0-4.118-1.4365-7.6135-4.3077-10.485-2.8707-2.8707-6.3499-4.3066-10.438-4.3066-4.0884 1e-5 -7.5464 1.4432-10.372 4.3289zm7.7545 8.7032c-0.45029-0.98169-1.1243-1.4728-2.0232-1.4728-1.5892 0-2.3834 1.0701-2.3834 3.2091 0 2.1395 0.79428 3.2085 2.3834 3.2085 1.0494 0 1.7989-0.52075 2.2487-1.5645l2.2028 1.173c-1.0499 1.8655-2.6251 2.7985-4.7255 2.7985-1.6199 0-2.9176-0.4967-3.8921-1.489-0.9761-0.99341-1.4627-2.3627-1.4627-4.1085 0-1.715 0.50229-3.0765 1.5075-4.085 1.0052-1.0085 2.257-1.5126 3.7578-1.5126 2.2201 0 3.8098 0.87488 4.7708 2.6229zm10.363 0c-0.45087-0.98169-1.1114-1.4728-1.9824-1.4728-1.621 0-2.4321 1.0701-2.4321 3.2091 0 2.1395 0.8111 3.2085 2.4321 3.2085 1.0511 0 1.7872-0.52075 2.2073-1.5645l2.252 1.173c-1.0483 1.8655-2.6212 2.7985-4.7177 2.7985-1.6177 0-2.9126-0.4967-3.8865-1.489-0.97217-0.99341-1.4594-2.3627-1.4594-4.1085 0-1.715 0.49445-3.0765 1.4828-4.085 0.98785-1.0085 2.2453-1.5126 3.7735-1.5126 2.2162 0 3.8036 0.87488 4.7613 2.6229z"/>
   </g>
  </g>
  <circle cx="255.55" cy="15.313" r="10.807" fill="#fff"/>
  <path d="m258.68 12.187c0-0.4165-0.33789-0.75391-0.75293-0.75391h-4.7734c-0.41504 0-0.75293 0.3374-0.75293 0.75391v4.773h1.331v5.6519h3.6172v-5.6519h1.331v-4.773z"/>
  <circle cx="255.54" cy="9.1724" r="1.6328"/>
  <path d="m255.52 3.4072c-3.2324 0-5.9688 1.1279-8.208 3.3838-2.2978 2.3335-3.4463 5.0957-3.4463 8.2847s1.1484 5.9316 3.4463 8.2266c2.2978 2.2944 5.0342 3.4419 8.208 3.4419 3.2129 0 5.998-1.1562 8.3535-3.4712 2.2197-2.1973 3.3301-4.9297 3.3301-8.1973s-1.1299-6.0288-3.3877-8.2847c-2.2598-2.2558-5.0244-3.3838-8.2959-3.3838zm0.0293 2.0996c2.6484 0 4.8975 0.93408 6.7471 2.8013 1.8691 1.8472 2.8037 4.103 2.8037 6.7676 0 2.6836-0.91504 4.9106-2.7451 6.6802-1.9287 1.9062-4.1963 2.8589-6.8057 2.8589-2.6104 0-4.8594-0.94287-6.7471-2.8296-1.8896-1.8867-2.833-4.123-2.833-6.7095 0-2.5869 0.9541-4.8423 2.8623-6.7676 1.8301-1.8672 4.0693-2.8013 6.7178-2.8013z" clip-rule="evenodd" fill-rule="evenodd"/>
 </g>
 <text x="623.10339" y="1492.9489" font-family="sans-serif" font-size="16px" style="line-height:1.45" onclick="https://creativecommons.org/licenses/by/4.0/deed.de" xml:space="preserve"><title>CC BY 4.0-Lizenz</title><tspan x="623.10339" y="1492.9489" font-size="16px">Dieser Text steht unter der CC BY 4.0-Lizenz. Der Name </tspan><tspan x="623.10339" y="1516.1488" font-size="16px">der Urheberin soll bei einer Weiterverwendung wie folgt </tspan><tspan x="623.10339" y="1539.3489" font-size="16px">genannt werden:  <tspan font-family="sans-serif" font-weight="bold">Technische Hochschule Köln - ZLE</tspan></tspan></text>
 <path d="m648.35 704.97h-13.584c-1.2435 0-2.2514 1.008-2.2514 2.2514v13.584c0 1.2435 1.008 2.2514 2.2514 2.2514h13.584c1.2435 0 2.2514-1.008 2.2514-2.2514v-13.584c0-1.2435-1.008-2.2514-2.2514-2.2514zm8.921 1.7757-5.1623 3.5609v7.4137l5.1623 3.5561c0.99855 0.68769 2.3739-0.0141 2.3739-1.2152v-12.1c0-1.1964-1.3706-1.9029-2.3739-1.2152z" stroke-width=".047101"/>
</svg>
