<?xml version="1.0" encoding="UTF-8" standalone="no"?>
<svg
   xmlns:dc="http://purl.org/dc/elements/1.1/"
   xmlns:cc="http://creativecommons.org/ns#"
   xmlns:rdf="http://www.w3.org/1999/02/22-rdf-syntax-ns#"
   xmlns:svg="http://www.w3.org/2000/svg"
   xmlns="http://www.w3.org/2000/svg"
   xmlns:sodipodi="http://sodipodi.sourceforge.net/DTD/sodipodi-0.dtd"
   xmlns:inkscape="http://www.inkscape.org/namespaces/inkscape"
   viewBox="0 0 1122.5197 1587.4016"
   width="297mm"
   height="420mm"
   version="1.1"
   id="svg1216"
   sodipodi:docname="interview_mit_zoom.svg"
   inkscape:version="1.0.2 (e86c8708, 2021-01-15)"
   inkscape:export-filename="/Users/christian/Interviews_mit_Zoom.png"
   inkscape:export-xdpi="39"
   inkscape:export-ydpi="39">
  <title
     id="title18754">Interviews mit Zoom aufzeichnen</title>
  <metadata
     id="metadata1220">
    <rdf:RDF>
      <cc:Work
         rdf:about="">
        <dc:format>image/svg+xml</dc:format>
        <dc:type
           rdf:resource="http://purl.org/dc/dcmitype/StillImage" />
        <dc:title>Interviews mit Zoom aufzeichnen</dc:title>
        <cc:license
           rdf:resource="http://creativecommons.org/licenses/by/4.0/" />
        <dc:creator>
          <cc:Agent>
            <dc:title>Christian-Maximilian Steier</dc:title>
          </cc:Agent>
        </dc:creator>
        <dc:publisher>
          <cc:Agent>
            <dc:title>Hochschule Kölkn - Zentrum für Lehrentwicklung</dc:title>
          </cc:Agent>
        </dc:publisher>
        <dc:language>german</dc:language>
        <dc:subject>
          <rdf:Bag>
            <rdf:li>Zoom</rdf:li>
            <rdf:li>Aufzeichnung</rdf:li>
            <rdf:li>Interview</rdf:li>
          </rdf:Bag>
        </dc:subject>
        <dc:date>24.03.2021</dc:date>
      </cc:Work>
      <cc:License
         rdf:about="http://creativecommons.org/licenses/by/4.0/">
        <cc:permits
           rdf:resource="http://creativecommons.org/ns#Reproduction" />
        <cc:permits
           rdf:resource="http://creativecommons.org/ns#Distribution" />
        <cc:requires
           rdf:resource="http://creativecommons.org/ns#Notice" />
        <cc:requires
           rdf:resource="http://creativecommons.org/ns#Attribution" />
        <cc:permits
           rdf:resource="http://creativecommons.org/ns#DerivativeWorks" />
      </cc:License>
    </rdf:RDF>
  </metadata>
  <sodipodi:namedview
     pagecolor="#ffffff"
     bordercolor="#666666"
     borderopacity="1"
     objecttolerance="10"
     gridtolerance="10"
     guidetolerance="10"
     inkscape:pageopacity="0"
     inkscape:pageshadow="2"
     inkscape:window-width="1898"
     inkscape:window-height="1018"
     id="namedview1218"
     showgrid="true"
     units="mm"
     inkscape:zoom="1.3249068"
     inkscape:cx="741.81159"
     inkscape:cy="1372.6329"
     inkscape:window-x="0"
     inkscape:window-y="23"
     inkscape:window-maximized="0"
     inkscape:current-layer="svg1216">
    <inkscape:grid
       type="xygrid"
       id="grid6557" />
  </sodipodi:namedview>
  <defs
     id="defs837">
    <rect
       x="-110"
       y="360"
       width="1240"
       height="220"
       id="rect18305" />
    <style
       id="style7045">.cls-1{fill:#c60c0f;}.cls-2{fill:#ea5b0c;}.cls-3{fill:#b62584;}</style>
  </defs>
  <style
     id="style839">
		tspan { white-space:pre }
		.txt0 { font-size: 268px;line-height: 14px;fill: #0b0c0c;font-family: &quot;Font Awesome&quot; } 
		.txt1 { font-size: 90px;line-height: 14px;fill: #ffffff;font-family: &quot;Font Awesome&quot; } 
		.txt2 { font-size: 80px;fill: #000000;font-weight: bold;font-family: &quot;Helvetica Neue&quot; } 
		.txt3 { font-size: 123px;line-height: 152px;fill: #000000;font-weight: bold;font-family: &quot;Helvetica Neue&quot; } 
		.shp4 { opacity: 0.502;fill: #ffffff } 
		.shp5 { fill: none;stroke: #85994b;stroke-linecap:square;stroke-width: 8 } 
		.txt6 { font-size: 100px;fill: #000000;font-weight: bold;font-family: &quot;Helvetica Neue&quot; } 
		.txt7 { font-size: 34px;fill: #000000;font-weight: bold;font-family: &quot;Helvetica Neue&quot; } 
		.txt8 { font-size: 48px;fill: #005ea5;font-weight: bold;font-family: &quot;Helvetica Neue&quot; } 
		.txt9 { font-size: 48px;fill: #0059a5;font-weight: bold;font-family: &quot;Helvetica Neue&quot; } 
		.shp10 { fill: #ffffff } 
		.txt11 { font-size: 200px;line-height: 14px;fill: #28a197;font-family: &quot;Font Awesome&quot; } 
		.shp12 { opacity: 0.467;fill: #ffffff } 
		.txt13 { font-size: 135px;line-height: 14px;fill: #f47738;font-family: &quot;Font Awesome&quot; } 
		.txt14 { font-size: 80px;fill: #b58840;font-weight: bold;font-family: &quot;Helvetica Neue&quot; } 
		.txt15 { font-size: 64px;fill: #28a197;font-weight: bold;font-family: &quot;Helvetica Neue&quot; } 
		.txt16 { font-size: 60px;fill: #f47738;font-weight: bold;font-family: &quot;Helvetica Neue&quot; } 
		.txt17 { font-size: 82px;fill: #333333;font-weight: bold;font-family: &quot;Helvetica Neue&quot; } 
		.txt18 { font-size: 48px;fill: #28a197;font-weight: bold;font-family: &quot;Helvetica Neue&quot; } 
		.shp19 { fill: none;stroke: #28a197;stroke-linecap:square;stroke-width: 4 } 
		.txt20 { font-size: 235px;line-height: 14px;fill: #333333;font-family: &quot;Font Awesome&quot; } 
		.shp21 { fill: #f47738 } 
		.shp22 { fill: #85994b } 
		.shp23 { fill: #28a197 } 
		.shp24 { fill: #b58840 } 
		.shp25 { fill: #ffbf47 } 
		.txt26 { font-size: 124px;fill: #85994b;font-weight: bold;font-family: &quot;Helvetica Neue&quot; } 
		.shp27 { fill: #df3034 } 
		.shp28 { fill: #844789 } 
		.shp29 { fill: #000206 } 
		.shp30 { fill: #131614 } 
		.shp31 { fill: #c53e78 } 
		.shp32 { fill: #e47448 } 
		.shp33 { fill: #768f51 } 
		.shp34 { fill: #aab2ab } 
		.shp35 { fill: #000000 } 
		.txt36 { font-size: 12px;line-height: 18px;fill: #000000;font-family: &quot;Helvetica Neue&quot; } 
	</style>
  <path
     id="path858-7"
     class="shp4"
     d="M 40,40 H 1080 V 1420 H 40 Z"
     style="opacity:0.502;fill:#ea5a00;fill-opacity:1;stroke-width:1.80149" />
  <use
     id="background"
     href="#img1"
     transform="translate(43,49)"
     x="0"
     y="0"
     width="100%"
     height="100%" />
  <text
     xml:space="preserve"
     style="font-size:69.4417px;line-height:1.45;font-family:sans-serif;stroke-width:0.72335"
     x="64.952934"
     y="140.65111"
     id="text6531"><tspan
       sodipodi:role="line"
       id="tspan6529"
       x="64.952934"
       y="140.65111"
       style="font-style:normal;font-variant:normal;font-weight:bold;font-stretch:normal;font-size:69.4417px;font-family:Arial;-inkscape-font-specification:'Arial Bold';stroke-width:0.72335">Interviews mit Zoom</tspan></text>
  <text
     xml:space="preserve"
     style="font-size:116.736px;line-height:1.45;font-family:sans-serif;stroke-width:0.706064"
     x="70.745964"
     y="274.39038"
     id="text6531-4"
     transform="scale(0.976102,1.0244831)"><tspan
       sodipodi:role="line"
       id="tspan6529-3"
       x="70.745964"
       y="274.39038"
       style="font-style:normal;font-variant:normal;font-weight:bold;font-stretch:normal;font-size:116.736px;font-family:Arial;-inkscape-font-specification:'Arial Bold';stroke-width:0.706064">aufzeichnen</tspan></text>
  <path
     d="M 1023.0138,82.313486 H 817.99084 c -11.31891,0 -20.50226,9.183319 -20.50226,20.502294 V 239.4977 c 0,11.31898 9.18335,20.5023 20.50226,20.5023 H 900 l -6.83415,20.50229 h -30.75336 c -5.68081,0 -10.25121,4.5703 -10.25121,10.25114 0,5.68085 4.5704,10.25115 10.25121,10.25115 h 116.17962 c 5.68074,0 10.25116,-4.5703 10.25116,-10.25115 0,-5.68084 -4.57042,-10.25114 -10.25116,-10.25114 H 947.83872 L 941.0046,260 h 82.0092 c 11.319,0 20.5023,-9.18332 20.5023,-20.5023 V 102.81578 c 0,-11.318975 -9.1834,-20.502294 -20.5023,-20.502294 z m -6.8341,150.350144 H 824.82488 V 109.64989 h 191.35482 z"
     id="path6605"
     style="stroke-width:0.427131" />
  <path
     inkscape:connector-curvature="0"
     style="overflow:visible;fill:none;fill-opacity:1;stroke:#000000;stroke-width:5.7868;stroke-miterlimit:4;stroke-dasharray:none;stroke-opacity:1"
     d="m 895.7308,134.0482 c -19.00973,0.31164 -33.96825,13.40031 -33.6565,28.98203 0,8.10252 4.67445,15.58176 11.53038,20.56792 0,0.31163 0,0.62327 0.31166,0.9349 0.93491,6.2327 -2.8048,11.21886 -2.8048,11.21886 0,0 6.85602,-1.55818 10.90722,-4.67454 0.62333,-0.62325 1.55824,-1.24652 2.1814,-2.18142 4.05138,1.24652 8.10267,1.8698 12.77713,1.8698 18.69816,-0.31163 33.96816,-13.40031 33.65659,-28.98203 -0.62333,-15.58174 -16.2051,-28.04714 -34.90308,-27.73552 z"
     id="path11" />
  <path
     inkscape:connector-curvature="0"
     style="fill:#000000;fill-opacity:1;stroke-width:0.474589"
     d="m 911.72238,163.46563 c 0,2.09612 -1.72355,3.89281 -3.44708,3.89281 -2.01081,0 -3.73445,-1.79669 -3.73445,-3.89281 0,-2.09614 1.72364,-3.59338 3.73445,-3.59338 1.72353,0 3.44708,1.49724 3.44708,3.59338 z m -14.65025,-3.59338 c -2.01083,0 -3.44716,1.79668 -3.44716,3.59338 0,2.09612 1.72353,3.89281 3.44716,3.89281 2.01082,0 3.73436,-1.79669 3.73436,-3.89281 -0.28729,-2.09614 -1.72354,-3.59338 -3.73436,-3.59338 z m -11.49047,0 c -2.01082,0 -3.73436,1.79668 -3.73436,3.59338 0,2.09612 1.72354,3.89281 3.73436,3.89281 2.01083,0 3.73445,-1.79669 3.73445,-3.89281 0,-2.09614 -1.72362,-3.59338 -3.73445,-3.59338 z"
     id="path29" />
  <path
     inkscape:connector-curvature="0"
     style="fill:#000000;fill-opacity:1;stroke:none;stroke-width:2.93291;stroke-opacity:1"
     d="m 965.35422,198.31996 c 5.45787,-4.19225 9.1923,-10.18119 9.1923,-17.06849 0.28725,-13.17567 -12.35222,-23.95578 -28.15152,-24.25523 -15.51205,-0.29944 -28.43886,9.88176 -28.72615,23.05744 -0.28719,13.17569 12.35224,23.95578 28.15164,24.25522 4.02158,0 7.75602,-0.59889 11.2031,-1.49722 2.87256,3.89281 10.62858,5.6895 10.62858,5.6895 0,0 -3.44707,-5.0906 -2.29795,-10.18122 z"
     id="path36" />
  <path
     inkscape:connector-curvature="0"
     style="mix-blend-mode:normal;fill:#ffffff;fill-opacity:1;stroke-width:0.474589"
     d="m 960.04171,179.29662 c 0,2.09614 -1.72353,3.89282 -3.44708,3.89282 -2.01079,0 -3.73432,-1.79668 -3.73432,-3.89282 0,-2.09613 1.72353,-3.59337 3.73432,-3.59337 1.72355,0 3.44708,1.49724 3.44708,3.59337 z m -14.65027,-3.59337 c -2.0109,0 -3.44717,1.79669 -3.44717,3.59337 0,2.09614 1.72363,3.89282 3.44717,3.89282 2.01089,0 3.73443,-1.79668 3.73443,-3.89282 -0.28725,-2.09613 -1.72354,-3.59337 -3.73443,-3.59337 z m -11.49043,0 c -2.01082,0 -3.73436,1.79669 -3.73436,3.59337 0,2.09614 1.72354,3.89282 3.73436,3.89282 2.01087,0 3.7344,-1.79668 3.7344,-3.89282 0,-2.09613 -1.72353,-3.59337 -3.7344,-3.59337 z"
     id="path52-6" />
  <path
     inkscape:connector-curvature="0"
     style="opacity:1;mix-blend-mode:normal;fill:#e95a00;fill-opacity:0.501961;stroke-width:0.474589"
     d="m 960.04171,179.29662 c 0,2.09614 -1.72353,3.89282 -3.44708,3.89282 -2.01079,0 -3.73432,-1.79668 -3.73432,-3.89282 0,-2.09613 1.72353,-3.59337 3.73432,-3.59337 1.72355,0 3.44708,1.49724 3.44708,3.59337 z m -14.65027,-3.59337 c -2.0109,0 -3.44717,1.79669 -3.44717,3.59337 0,2.09614 1.72363,3.89282 3.44717,3.89282 2.01089,0 3.73443,-1.79668 3.73443,-3.89282 -0.28725,-2.09613 -1.72354,-3.59337 -3.73443,-3.59337 z m -11.49043,0 c -2.01082,0 -3.73436,1.79669 -3.73436,3.59337 0,2.09614 1.72354,3.89282 3.73436,3.89282 2.01087,0 3.7344,-1.79668 3.7344,-3.89282 0,-2.09613 -1.72353,-3.59337 -3.7344,-3.59337 z"
     id="path52" />
  <g
     id="g7141"
     transform="matrix(1.1277991,0,0,1.127799,42.064126,1469.0736)">
    <path
       class="cls-1"
       d="M 13,41.9 H 9.2 V 39.66 H 19.34 V 41.9 H 15.56 V 54.49 H 13 Z"
       transform="translate(-9.2,-38.98)"
       id="path7051" />
    <path
       class="cls-1"
       d="m 21.3,49.85 a 2.72,2.72 0 0 0 3,2.86 7.42,7.42 0 0 0 2.7,-0.46 l 0.37,1.8 a 8.67,8.67 0 0 1 -3.43,0.64 c -3.26,0 -5.13,-2.11 -5.13,-5.39 0,-3.12 1.76,-5.74 4.86,-5.74 3.1,0 4.25,2.62 4.25,5.13 a 6.77,6.77 0 0 1 -0.09,1.17 H 21.3 Z M 25.46,48 c 0,-1.21 -0.46,-2.64 -2,-2.64 -1.54,0 -2.07,1.52 -2.16,2.64 z"
       transform="translate(-9.2,-38.98)"
       id="path7053" />
    <path
       class="cls-1"
       d="m 37.12,54.2 a 7,7 0 0 1 -2.66,0.48 c -3.1,0 -5.13,-2.07 -5.13,-5.46 a 5.31,5.31 0 0 1 5.57,-5.65 6,6 0 0 1 2.29,0.44 l -0.44,2 A 3.77,3.77 0 0 0 35,45.62 c -1.91,0 -3,1.54 -3,3.52 0,2.2 1.28,3.48 3,3.48 a 4.45,4.45 0 0 0 1.83,-0.37 z"
       transform="translate(-9.2,-38.98)"
       id="path7055" />
    <path
       class="cls-1"
       d="m 38.92,39 h 2.6 v 6.16 0 a 3.43,3.43 0 0 1 2.95,-1.58 c 1.78,0 3.41,1.25 3.41,4.49 v 6.45 h -2.6 v -6.26 c 0,-1.43 -0.46,-2.57 -1.83,-2.57 a 2,2 0 0 0 -1.87,1.45 2.5,2.5 0 0 0 -0.11,0.81 v 6.54 h -2.6 V 39 Z"
       transform="translate(-9.2,-38.98)"
       id="path7057" />
    <path
       class="cls-1"
       d="m 50.58,46.92 c 0,-1.23 0,-2.2 -0.09,-3.15 h 2.27 l 0.13,1.5 v 0 a 3.63,3.63 0 0 1 3.17,-1.72 c 1.83,0 3.48,1.25 3.48,4.38 v 6.56 H 57 v -6.27 c 0,-1.41 -0.46,-2.53 -1.8,-2.53 a 2,2 0 0 0 -1.87,1.5 2.78,2.78 0 0 0 -0.13,0.9 v 6.4 h -2.6 v -7.57 z"
       transform="translate(-9.2,-38.98)"
       id="path7059" />
    <path
       class="cls-1"
       d="m 66.55,54.71 c -2.79,0 -4.91,-2 -4.91,-5.52 0,-3.52 2.2,-5.63 5,-5.63 2.8,0 4.86,2.16 4.86,5.5 0,4 -2.62,5.65 -5,5.65 v 0 z m 0.07,-1.91 c 1.43,0 2.27,-1.69 2.27,-3.67 0,-1.65 -0.59,-3.65 -2.27,-3.65 -1.68,0 -2.31,2 -2.31,3.67 0,2 0.81,3.65 2.29,3.65 v 0 z"
       transform="translate(-9.2,-38.98)"
       id="path7061" />
    <path
       class="cls-1"
       d="m 73.64,39 h 2.6 v 15.49 h -2.6 z"
       transform="translate(-9.2,-38.98)"
       id="path7063" />
    <path
       class="cls-1"
       d="m 83.3,54.71 c -2.79,0 -4.91,-2 -4.91,-5.52 0,-3.52 2.2,-5.63 5,-5.63 2.8,0 4.86,2.16 4.86,5.5 0,4 -2.62,5.65 -5,5.65 v 0 z m 0.07,-1.91 c 1.43,0 2.27,-1.69 2.27,-3.67 0,-1.65 -0.59,-3.65 -2.27,-3.65 -1.68,0 -2.31,2 -2.31,3.67 0,2 0.81,3.65 2.29,3.65 v 0 z"
       transform="translate(-9.2,-38.98)"
       id="path7065" />
    <path
       class="cls-1"
       d="m 99.34,53 c 0,2.33 -0.44,3.78 -1.47,4.75 A 5.64,5.64 0 0 1 94,59 7.12,7.12 0 0 1 90.63,58.25 l 0.55,-2 A 5.58,5.58 0 0 0 94,57 c 1.65,0 2.77,-0.92 2.77,-3.15 V 53 53 A 3.12,3.12 0 0 1 94,54.45 c -2.51,0 -4.16,-2.27 -4.16,-5.24 0,-3.59 2.11,-5.63 4.44,-5.63 A 3,3 0 0 1 97,45.12 v 0 l 0.11,-1.34 h 2.27 c 0,0.77 -0.09,1.69 -0.09,3.17 V 53 Z m -2.6,-5.08 a 2.71,2.71 0 0 0 -0.09,-0.75 2,2 0 0 0 -1.92,-1.58 c -1.39,0 -2.33,1.36 -2.33,3.5 0,2 0.86,3.34 2.31,3.34 a 2,2 0 0 0 1.9,-1.43 3.39,3.39 0 0 0 0.13,-1 v -2.07 z"
       transform="translate(-9.2,-38.98)"
       id="path7067" />
    <path
       class="cls-1"
       d="m 103.69,43.78 1.72,5.76 c 0.2,0.68 0.4,1.45 0.53,2 H 106 c 0.15,-0.59 0.33,-1.36 0.51,-2 l 1.5,-5.76 h 2.71 l -2.49,7.42 c -1.19,3.5 -2.11,5.43 -3.34,6.65 a 5.27,5.27 0 0 1 -2.66,1.45 l -0.66,-2.2 a 4.27,4.27 0 0 0 1.54,-0.84 4.75,4.75 0 0 0 1.32,-1.65 1,1 0 0 0 0.15,-0.48 1.3,1.3 0 0 0 -0.11,-0.48 l -3.61,-9.86 h 2.84 z"
       transform="translate(-9.2,-38.98)"
       id="path7069" />
    <path
       class="cls-2"
       d="m 13.18,72.4 -1.12,4.09 H 9.42 L 13.75,61.66 H 17 l 4.29,14.83 H 18.55 L 17.38,72.4 Z m 3.81,-2 -1,-3.59 c -0.24,-0.95 -0.48,-2 -0.68,-3 v 0 c -0.2,0.92 -0.44,2.07 -0.66,3 l -1,3.59 H 17 Z"
       transform="translate(-9.2,-38.98)"
       id="path7071" />
    <path
       class="cls-2"
       d="m 23,69.1 c 0,-1.3 0,-2.38 -0.09,-3.32 h 2.24 l 0.11,1.91 h 0.09 a 3,3 0 0 1 2.68,-2.13 4.12,4.12 0 0 1 0.59,0 v 2.51 a 3.06,3.06 0 0 0 -0.7,-0.07 2.3,2.3 0 0 0 -2.27,2 5.13,5.13 0 0 0 -0.07,0.88 v 5.59 H 23 Z"
       transform="translate(-9.2,-38.98)"
       id="path7073" />
    <path
       class="cls-2"
       d="m 33.8,63 v 2.73 h 2.42 v 1.91 H 33.8 v 5 c 0,1.3 0.4,1.87 1.3,1.87 A 3,3 0 0 0 36,74.44 l 0.07,2 a 6.25,6.25 0 0 1 -1.85,0.24 2.89,2.89 0 0 1 -2.18,-0.81 4.1,4.1 0 0 1 -0.84,-3 v -5.18 h -1.41 v -1.91 h 1.45 v -2 z"
       transform="translate(-9.2,-38.98)"
       id="path7075" />
    <path
       class="cls-2"
       d="m 37.93,74.09 a 5.34,5.34 0 0 0 2.46,0.7 c 1.08,0 1.61,-0.48 1.61,-1.21 0,-0.73 -0.4,-1.1 -1.63,-1.61 -1.94,-0.79 -2.71,-1.89 -2.71,-3.12 0,-1.87 1.5,-3.3 3.83,-3.3 a 5.5,5.5 0 0 1 2.6,0.62 L 43.56,68 a 4.09,4.09 0 0 0 -2,-0.57 1.19,1.19 0 0 0 -1.41,1.12 c 0,0.66 0.44,1 1.69,1.52 1.8,0.75 2.66,1.76 2.66,3.26 0,2 -1.52,3.34 -4.11,3.34 a 6,6 0 0 1 -2.95,-0.7 z"
       transform="translate(-9.2,-38.98)"
       id="path7077" />
    <path
       class="cls-3"
       d="m 50.76,73.67 a 6.57,6.57 0 0 0 3.19,0.84 c 1.65,0 2.57,-0.81 2.57,-2 0,-1.19 -0.75,-1.8 -2.44,-2.53 -2.2,-0.92 -3.63,-2.29 -3.63,-4.27 0,-2.38 1.87,-4.22 5,-4.22 a 7.07,7.07 0 0 1 3.15,0.66 L 58,64.28 a 5.66,5.66 0 0 0 -2.64,-0.64 c -1.61,0 -2.31,0.9 -2.31,1.78 0,1.14 0.79,1.67 2.64,2.49 2.35,1.06 3.45,2.4 3.45,4.36 0,2.46 -1.83,4.42 -5.32,4.42 a 7.89,7.89 0 0 1 -3.59,-0.84 z"
       transform="translate(-9.2,-38.98)"
       id="path7079" />
    <path
       class="cls-3"
       d="m 68.6,76.2 a 7,7 0 0 1 -2.66,0.48 c -3.1,0 -5.13,-2.07 -5.13,-5.46 a 5.31,5.31 0 0 1 5.57,-5.65 6,6 0 0 1 2.29,0.44 l -0.44,2 a 3.77,3.77 0 0 0 -1.78,-0.37 c -1.91,0 -3,1.54 -3,3.52 0,2.2 1.28,3.48 3,3.48 a 4.44,4.44 0 0 0 1.83,-0.37 z"
       transform="translate(-9.2,-38.98)"
       id="path7081" />
    <path
       class="cls-3"
       d="m 71.68,64.26 a 1.37,1.37 0 0 1 -1.41,-1.43 1.39,1.39 0 0 1 1.45,-1.43 1.36,1.36 0 0 1 1.43,1.43 1.38,1.38 0 0 1 -1.45,1.43 v 0 z M 70.4,76.49 V 65.78 H 73 v 10.71 z"
       transform="translate(-9.2,-38.98)"
       id="path7083" />
    <path
       class="cls-3"
       d="m 77.62,71.85 a 2.72,2.72 0 0 0 3,2.86 7.43,7.43 0 0 0 2.66,-0.46 l 0.37,1.8 a 8.65,8.65 0 0 1 -3.43,0.64 c -3.26,0 -5.13,-2.11 -5.13,-5.39 0,-3.12 1.76,-5.74 4.86,-5.74 3.1,0 4.25,2.62 4.25,5.13 a 6.77,6.77 0 0 1 -0.09,1.17 H 77.62 Z M 81.78,70 c 0,-1.21 -0.46,-2.64 -2,-2.64 -1.54,0 -2.09,1.5 -2.18,2.64 h 4.16 z"
       transform="translate(-9.2,-38.98)"
       id="path7085" />
    <path
       class="cls-3"
       d="m 86.24,68.92 c 0,-1.23 0,-2.2 -0.09,-3.15 h 2.27 l 0.13,1.5 v 0 a 3.63,3.63 0 0 1 3.17,-1.72 c 1.83,0 3.48,1.25 3.48,4.38 v 6.56 h -2.6 v -6.27 c 0,-1.41 -0.46,-2.53 -1.8,-2.53 a 2,2 0 0 0 -1.8,1.5 2.76,2.76 0 0 0 -0.13,0.9 v 6.4 h -2.6 v -7.57 z"
       transform="translate(-9.2,-38.98)"
       id="path7087" />
    <path
       class="cls-3"
       d="m 105.1,76.2 a 6.94,6.94 0 0 1 -2.66,0.48 c -3.1,0 -5.13,-2.07 -5.13,-5.46 a 5.31,5.31 0 0 1 5.57,-5.65 6,6 0 0 1 2.29,0.44 l -0.44,2 a 3.78,3.78 0 0 0 -1.78,-0.37 c -1.91,0 -3,1.54 -3,3.52 0,2.2 1.28,3.48 3,3.48 a 4.43,4.43 0 0 0 1.83,-0.37 z"
       transform="translate(-9.2,-38.98)"
       id="path7089" />
    <path
       class="cls-3"
       d="m 108.66,71.85 a 2.72,2.72 0 0 0 3,2.86 7.42,7.42 0 0 0 2.66,-0.46 l 0.37,1.8 a 8.66,8.66 0 0 1 -3.43,0.64 c -3.26,0 -5.13,-2.11 -5.13,-5.39 0,-3.12 1.76,-5.74 4.86,-5.74 3.1,0 4.25,2.62 4.25,5.13 a 6.87,6.87 0 0 1 -0.09,1.17 h -6.51 z M 112.82,70 c 0,-1.21 -0.46,-2.64 -2,-2.64 -1.54,0 -2.09,1.5 -2.18,2.64 h 4.16 z"
       transform="translate(-9.2,-38.98)"
       id="path7091" />
    <path
       class="cls-3"
       d="m 117.15,74.09 a 5.34,5.34 0 0 0 2.46,0.7 c 1.08,0 1.61,-0.48 1.61,-1.21 0,-0.73 -0.4,-1.1 -1.63,-1.61 -1.94,-0.79 -2.71,-1.89 -2.71,-3.12 0,-1.87 1.5,-3.3 3.83,-3.3 a 5.49,5.49 0 0 1 2.6,0.62 L 122.78,68 a 4.1,4.1 0 0 0 -2,-0.57 1.2,1.2 0 0 0 -1.41,1.12 c 0,0.66 0.44,1 1.69,1.52 1.8,0.75 2.66,1.76 2.66,3.26 0,2 -1.52,3.34 -4.12,3.34 a 6,6 0 0 1 -2.95,-0.7 z"
       transform="translate(-9.2,-38.98)"
       id="path7093" />
    <path
       d="M 12.9,88.63 H 9.31 v -2.77 h 10.43 v 2.77 h -3.63 v 12.06 H 12.9 Z"
       transform="translate(-9.2,-38.98)"
       id="path7095" />
    <path
       d="m 25.3,85.86 v 5.79 h 4.77 v -5.79 h 3.21 v 14.83 h -3.2 v -6.2 H 25.3 v 6.21 H 22.09 V 85.86 Z"
       transform="translate(-9.2,-38.98)"
       id="path7097" />
    <path
       d="m 41.58,85.86 h 3.19 v 6.6 h 0.07 q 0.43,-0.89 0.92,-1.72 l 2.93,-4.88 h 3.85 l -4.44,6.36 4.64,8.47 h -3.68 l -3.21,-6.32 -1.08,1.45 v 4.86 h -3.19 z"
       transform="translate(-9.2,-38.98)"
       id="path7099" />
    <path
       d="m 58.88,100.91 c -3,0 -5.13,-2.07 -5.13,-5.54 0,-3.47 2.25,-5.66 5.25,-5.66 3,0 5,2.22 5,5.52 0,4.09 -2.68,5.68 -5.17,5.68 v 0 z m -2.16,-12.5 a 1.51,1.51 0 0 1 0,-3 1.51,1.51 0 0 1 0,3 z M 59,98.58 c 1.19,0 1.85,-1.45 1.85,-3.28 0,-1.56 -0.51,-3.26 -1.85,-3.26 -1.34,0 -2,1.7 -2,3.26 0,1.85 0.64,3.28 1.91,3.28 v 0 z m 2.1,-10.17 a 1.51,1.51 0 0 1 0,-3 1.43,1.43 0 0 1 1.43,1.5 1.45,1.45 0 0 1 -1.43,1.52 v 0 z"
       transform="translate(-9.2,-38.98)"
       id="path7101" />
    <path
       d="m 66.66,85.18 h 3.21 v 15.51 h -3.21 z"
       transform="translate(-9.2,-38.98)"
       id="path7103" />
    <path
       d="m 73,93.32 c 0,-1.3 0,-2.4 -0.09,-3.39 h 2.77 l 0.15,1.41 h 0.07 a 3.68,3.68 0 0 1 3.13,-1.63 c 2.16,0 3.56,1.52 3.56,4.45 v 6.54 h -3.17 v -6.21 c 0,-1.23 -0.42,-2.16 -1.52,-2.16 a 1.61,1.61 0 0 0 -1.52,1.17 2.56,2.56 0 0 0 -0.13,0.88 v 6.32 H 73 Z"
       transform="translate(-9.2,-38.98)"
       id="path7105" />
  </g>
  <path
     id="path856-0-71-64-70"
     class="shp4"
     d="M 37.99996,1695.7858 H 1540 V 1980 H 37.99996 Z"
     style="opacity:0.502;fill:#ffffff;stroke-width:0.982494" />
  <path
     id="path856-0-71-64-4"
     class="shp4"
     d="M 40,329.9896 H 1080 V 501.75705 H 40 Z"
     style="opacity:0.502;fill:#ffffff;stroke-width:0.635565" />
  <path
     id="path856-0-71-64-4-1"
     class="shp4"
     d="m 40,800 h 1040 v 300.9228 H 40 Z"
     style="opacity:0.502;fill:#ffffff;stroke-width:0.841232" />
  <path
     d="m 215.16746,407.9203 c 0,5.40464 -4.72407,10.02599 -10.24881,10.02599 h -22.84271 c 3.73807,3.90003 4.19698,11.38487 -1.441,16.22972 3.26862,5.22255 0.49116,12.12858 -3.76324,14.25567 2.05296,11.24189 -5.02054,16.30269 -16.60855,16.30269 -0.6282,0 -3.03712,-0.0464 -3.66028,-0.0446 -14.17698,0.0384 -17.59088,-7.10668 -28.30568,-8.76525 -2.67041,-0.41338 -4.6369,-2.72028 -4.6369,-5.42271 v -39.23943 l 0.002,-2.2e-4 c 0.004,-4.20155 2.42654,-8.21026 6.51165,-10.03033 6.60819,-2.97261 21.82743,-11.21833 24.60033,-17.68903 1.7837,-4.1622 4.89197,-6.65348 9.15071,-6.65531 7.82888,-0.005 13.2118,8.0293 10.09301,15.3064 -0.81967,1.91229 -1.90152,3.81356 -3.23775,5.70044 h 34.1396 c 5.36461,0 10.24881,4.69959 10.24881,10.02598 z M 120,408 v 43.92346 c 0,3.03231 -2.45812,5.49042 -5.49043,5.49042 H 103.5287 c -3.03231,0 -5.49042,-2.45811 -5.49042,-5.49042 V 408 c 0,-3.03232 2.45811,-5.49043 5.49042,-5.49043 h 10.98087 c 3.03231,0 5.49043,2.45811 5.49043,5.49043 z m -6.4055,38.43301 c 0,-2.52695 -2.0484,-4.57534 -4.57536,-4.57534 -2.52697,0 -4.57536,2.04839 -4.57536,4.57534 0,2.52698 2.04839,4.57537 4.57536,4.57537 2.52696,0 4.57536,-2.04839 4.57536,-4.57537 z"
     id="path17573"
     style="stroke-width:0.228767" />
  <path
     d="m 160.74943,610.3896 h -59.379 c -5.435526,0 -9.841586,4.40607 -9.841586,9.84159 v 59.37901 c 0,5.43553 4.40606,9.84159 9.841586,9.84159 h 59.379 c 5.43552,0 9.84161,-4.40606 9.84161,-9.84159 v -59.37901 c 0,-5.43552 -4.40609,-9.84159 -9.84161,-9.84159 z m 38.99578,7.76211 -22.56567,15.56537 v 32.40724 l 22.56567,15.54479 c 4.3649,3.00601 10.37691,-0.0618 10.37691,-5.312 V 623.4637 c 0,-5.22964 -5.99144,-8.31801 -10.37691,-5.31199 z"
     id="path17630"
     style="stroke-width:0.20589" />
  <text
     xml:space="preserve"
     style="font-size:37.3333px;line-height:1.45;font-family:sans-serif"
     x="252.72162"
     y="389.46814"
     id="text17643"><tspan
       sodipodi:role="line"
       id="tspan17641"
       x="252.72162"
       y="389.46814"
       style="font-style:normal;font-variant:normal;font-weight:bold;font-stretch:normal;font-size:37.3333px;font-family:sans-serif;-inkscape-font-specification:'sans-serif Bold'">Nachweisbare Einwilligung einholen</tspan></text>
  <text
     xml:space="preserve"
     style="font-size:23.6024px;line-height:1.45;font-family:sans-serif;stroke-width:0.983435"
     x="254.73926"
     y="392.02371"
     id="text17647"
     transform="scale(0.98343454,1.0168445)"><tspan
       sodipodi:role="line"
       x="254.73926"
       y="392.02371"
       id="tspan17649"
       style="font-size:23.6024px;stroke-width:0.983435" /><tspan
       sodipodi:role="line"
       x="254.73926"
       y="426.24719"
       id="tspan17651"
       style="font-size:23.6024px;stroke-width:0.983435">□ Ich bin mit Streaming und Aufzeichnung meiner Stimme in Bild </tspan><tspan
       sodipodi:role="line"
       x="254.73926"
       y="460.47067"
       style="font-size:23.6024px;stroke-width:0.983435"
       id="tspan17661">   und Ton über Zoom einverstanden.</tspan><tspan
       sodipodi:role="line"
       x="254.73926"
       y="494.69415"
       id="tspan17657"
       style="font-size:23.6024px;stroke-width:0.983435" /></text>
  <text
     xml:space="preserve"
     style="font-size:37.3333px;line-height:1.45;font-family:sans-serif"
     x="250.71866"
     y="560.36127"
     id="text17643-5"><tspan
       sodipodi:role="line"
       id="tspan17641-4"
       x="250.71866"
       y="560.36127"
       style="font-style:normal;font-variant:normal;font-weight:bold;font-stretch:normal;font-size:37.3333px;font-family:sans-serif;-inkscape-font-specification:'sans-serif Bold'">Videoaufzeichnung (mit Bild)</tspan></text>
  <text
     xml:space="preserve"
     style="font-size:23.6024px;line-height:1.45;font-family:sans-serif;stroke-width:0.983435"
     x="253.14212"
     y="562.67969"
     id="text17647-9"
     transform="scale(0.98343454,1.0168445)"><tspan
       sodipodi:role="line"
       x="253.14212"
       y="562.67969"
       id="tspan17649-9"
       style="font-size:23.6024px;stroke-width:0.983435" /><tspan
       sodipodi:role="line"
       x="253.14212"
       y="596.9032"
       style="font-size:23.6024px;stroke-width:0.983435"
       id="tspan17661-3">Unter Einstellungen    &gt;&gt; Aufzeichnungen     </tspan><tspan
       sodipodi:role="line"
       x="253.14212"
       y="631.12665"
       style="font-size:23.6024px;stroke-width:0.983435"
       id="tspan17772"> ✓ Für Videoeditor von Dritten optimieren (für Postproduktion)</tspan><tspan
       sodipodi:role="line"
       x="253.14212"
       y="665.61383"
       style="font-size:23.6024px;stroke-width:0.983435"
       id="tspan17776"> ✓ Temporäre Aufzeichungsdateien behalten (falls es Probleme gibt)</tspan><tspan
       sodipodi:role="line"
       x="253.14212"
       y="700.10101"
       id="tspan17657-7"
       style="font-size:23.6024px;stroke-width:0.983435" /></text>
  <path
     d="m 502.06701,602.84792 -1.62528,-0.93854 c 0.16405,-0.88513 0.16405,-1.79317 0,-2.67826 l 1.62528,-0.93856 c 0.18693,-0.10683 0.27086,-0.32811 0.20983,-0.53412 -0.42349,-1.35822 -1.14455,-2.58672 -2.08692,-3.60918 -0.14499,-0.15643 -0.38151,-0.19457 -0.56464,-0.0878 L 498,595 c -0.68293,-0.58753 -1.46886,-1.04155 -2.31964,-1.33913 v -1.87327 c 0,-0.21365 -0.1488,-0.40059 -0.35863,-0.44638 -1.40018,-0.31284 -2.83471,-0.29758 -4.1662,0 -0.20984,0.0457 -0.35864,0.23273 -0.35864,0.44638 v 1.87707 c -0.84697,0.30141 -1.63291,0.75541 -2.31964,1.33915 l -1.62146,-0.93855 c -0.18695,-0.10682 -0.41968,-0.0725 -0.56466,0.0878 -0.94235,1.01866 -1.66342,2.24716 -2.08691,3.6092 -0.0649,0.206 0.0229,0.42729 0.20984,0.53412 l 1.62528,0.93854 c -0.16407,0.88512 -0.16407,1.79314 0,2.67827 l -1.62528,0.93854 c -0.18695,0.10683 -0.27089,0.32812 -0.20984,0.53412 0.42349,1.35822 1.14456,2.58672 2.08691,3.6092 0.14498,0.15642 0.38152,0.19457 0.56466,0.0878 l 1.62528,-0.93856 c 0.68291,0.58756 1.46885,1.04156 2.31963,1.33915 v 1.87707 c 0,0.21366 0.1488,0.4006 0.35863,0.44639 1.40019,0.31284 2.83472,0.29758 4.16621,0 0.20984,-0.0457 0.35863,-0.23273 0.35863,-0.44639 v -1.87707 c 0.84697,-0.3014 1.6329,-0.75541 2.31964,-1.33914 l 1.62529,0.93855 c 0.18693,0.10682 0.41967,0.0725 0.56464,-0.0878 0.94235,-1.01866 1.66342,-2.24716 2.08692,-3.6092 0.0572,-0.20983 -0.0266,-0.4311 -0.21365,-0.53793 z m -8.82839,0.77449 c -1.6825,0 -3.05216,-1.36967 -3.05216,-3.05217 0,-1.68251 1.36966,-3.05217 3.05216,-3.05217 1.68252,0 3.05217,1.36966 3.05217,3.05217 0,1.6825 -1.36965,3.05217 -3.05217,3.05217 z"
     id="path17824"
     style="stroke-width:0.038152" />
  <path
     d="m 184.26793,939.73206 h -4.06698 c -2.24702,0 -4.06699,1.81997 -4.06699,4.06699 V 956 c 0,19.01315 -16.39249,34.2694 -35.78693,32.3782 -16.90341,-1.6496 -29.28483,-16.84487 -29.28483,-33.82706 v -10.75209 c 0,-2.24702 -1.81998,-4.06699 -4.06699,-4.06699 h -4.06698 c -2.24701,0 -4.06699,1.81997 -4.06699,4.06699 v 10.20812 c 0,22.78528 16.26031,43.09733 38.63637,46.18313 v 8.6805 h -14.23445 c -2.24703,0 -4.067,1.82 -4.067,4.067 v 4.0669 c 0,2.2471 1.81997,4.067 4.067,4.067 H 163.933 c 2.24702,0 4.067,-1.8199 4.067,-4.067 v -4.0669 c 0,-2.247 -1.81998,-4.067 -4.067,-4.067 h -14.23444 v -8.5838 c 21.78633,-2.9893 38.63636,-21.68981 38.63636,-44.28699 v -12.20096 c 0,-2.24702 -1.81998,-4.06699 -4.06699,-4.06699 z M 143.59808,980.4019 C 157.07506,980.4019 168,969.47697 168,956 h -21.68975 c -1.49716,0 -2.71217,-0.90999 -2.71217,-2.0335 v -4.06698 c 0,-1.1235 1.21501,-2.03349 2.71217,-2.03349 H 168 v -8.13397 h -21.68975 c -1.49716,0 -2.71217,-0.90999 -2.71217,-2.0335 v -4.06697 c 0,-1.1235 1.21501,-2.03351 2.71217,-2.03351 H 168 v -8.13396 h -21.68975 c -1.49716,0 -2.71217,-0.90999 -2.71217,-2.03349 v -4.06699 c 0,-1.1235 1.21501,-2.0335 2.71217,-2.0335 H 168 c 0,-13.47696 -10.92494,-24.40191 -24.40192,-24.40191 -13.47698,0 -24.40192,10.92495 -24.40192,24.40191 V 956 c 0,13.47697 10.92494,24.4019 24.40192,24.4019 z"
     id="path17938"
     style="stroke-width:0.254186" />
  <text
     xml:space="preserve"
     style="font-size:37.3333px;line-height:1.45;font-family:sans-serif"
     x="250.71866"
     y="866.36127"
     id="text17643-5-7"><tspan
       sodipodi:role="line"
       id="tspan17641-4-6"
       x="250.71866"
       y="866.36127"
       style="font-style:normal;font-variant:normal;font-weight:bold;font-stretch:normal;font-size:37.3333px;font-family:sans-serif;-inkscape-font-specification:'sans-serif Bold'">Audioaufzeichnung (ohne Bild)</tspan></text>
  <text
     xml:space="preserve"
     style="font-size:23.6024px;line-height:1.45;font-family:sans-serif;stroke-width:0.983435"
     x="250.48856"
     y="860.18347"
     id="text17647-9-7"
     transform="scale(0.98343454,1.0168445)"><tspan
       sodipodi:role="line"
       x="250.48856"
       y="860.18347"
       id="tspan17649-9-3"
       style="font-size:23.6024px;stroke-width:0.983435" /><tspan
       sodipodi:role="line"
       x="250.48856"
       y="894.40698"
       style="font-size:23.6024px;stroke-width:0.983435"
       id="tspan17661-3-1">Unter Einstellungen    &gt;&gt; Aufzeichnungen     </tspan><tspan
       sodipodi:role="line"
       x="250.48856"
       y="928.63043"
       style="font-size:23.6024px;stroke-width:0.983435"
       id="tspan17776-0"> ✓ Eine seperate Audiodatei für jeden Teilnehmer aufnehmen</tspan><tspan
       sodipodi:role="line"
       x="250.48856"
       y="963.11761"
       style="font-size:23.6024px;stroke-width:0.983435"
       id="tspan18318"> ✓ Temporäre Aufzeichungsdateien behalten (falls es Probleme gibt)</tspan><tspan
       sodipodi:role="line"
       x="250.48856"
       y="997.6048"
       id="tspan17657-7-7"
       style="font-size:23.6024px;stroke-width:0.983435" /></text>
  <path
     d="m 502.06701,602.84792 -1.62528,-0.93854 c 0.16405,-0.88513 0.16405,-1.79317 0,-2.67826 l 1.62528,-0.93856 c 0.18693,-0.10683 0.27086,-0.32811 0.20983,-0.53412 -0.42349,-1.35822 -1.14455,-2.58672 -2.08692,-3.60918 -0.14499,-0.15643 -0.38151,-0.19457 -0.56464,-0.0878 L 498,595 c -0.68293,-0.58753 -1.46886,-1.04155 -2.31964,-1.33913 v -1.87327 c 0,-0.21365 -0.1488,-0.40059 -0.35863,-0.44638 -1.40018,-0.31284 -2.83471,-0.29758 -4.1662,0 -0.20984,0.0457 -0.35864,0.23273 -0.35864,0.44638 v 1.87707 c -0.84697,0.30141 -1.63291,0.75541 -2.31964,1.33915 l -1.62146,-0.93855 c -0.18695,-0.10682 -0.41968,-0.0725 -0.56466,0.0878 -0.94235,1.01866 -1.66342,2.24716 -2.08691,3.6092 -0.0649,0.206 0.0229,0.42729 0.20984,0.53412 l 1.62528,0.93854 c -0.16407,0.88512 -0.16407,1.79314 0,2.67827 l -1.62528,0.93854 c -0.18695,0.10683 -0.27089,0.32812 -0.20984,0.53412 0.42349,1.35822 1.14456,2.58672 2.08691,3.6092 0.14498,0.15642 0.38152,0.19457 0.56466,0.0878 l 1.62528,-0.93856 c 0.68291,0.58756 1.46885,1.04156 2.31963,1.33915 v 1.87707 c 0,0.21366 0.1488,0.4006 0.35863,0.44639 1.40019,0.31284 2.83472,0.29758 4.16621,0 0.20984,-0.0457 0.35863,-0.23273 0.35863,-0.44639 v -1.87707 c 0.84697,-0.3014 1.6329,-0.75541 2.31964,-1.33914 l 1.62529,0.93855 c 0.18693,0.10682 0.41967,0.0725 0.56464,-0.0878 0.94235,-1.01866 1.66342,-2.24716 2.08692,-3.6092 0.0572,-0.20983 -0.0266,-0.4311 -0.21365,-0.53793 z m -8.82839,0.77449 c -1.6825,0 -3.05216,-1.36967 -3.05216,-3.05217 0,-1.68251 1.36966,-3.05217 3.05216,-3.05217 1.68252,0 3.05217,1.36966 3.05217,3.05217 0,1.6825 -1.36965,3.05217 -3.05217,3.05217 z"
     id="path17824-9"
     style="stroke-width:0.038152" />
  <path
     d="m 501.27012,905.1834 -1.62528,-0.9385 c 0.16405,-0.8851 0.16405,-1.7932 0,-2.6783 l 1.62528,-0.9385 c 0.18693,-0.1068 0.27086,-0.3281 0.20983,-0.5341 -0.42349,-1.3583 -1.14455,-2.5868 -2.08692,-3.6092 -0.14499,-0.1564 -0.38151,-0.1946 -0.56464,-0.088 l -1.62528,0.9385 c -0.68293,-0.5875 -1.46886,-1.0415 -2.31964,-1.3391 v -1.8733 c 0,-0.2136 -0.1488,-0.4006 -0.35863,-0.4464 -1.40018,-0.3128 -2.83471,-0.2975 -4.1662,0 C 490.1488,893.7225 490,893.9093 490,894.1229 V 896 c -0.84697,0.3014 -1.63291,0.7554 -2.31964,1.3391 l -1.62146,-0.9385 c -0.18695,-0.1068 -0.41968,-0.072 -0.56466,0.088 -0.94235,1.0187 -1.66342,2.2472 -2.08691,3.6092 -0.0649,0.206 0.0229,0.4273 0.20984,0.5341 l 1.62528,0.9386 c -0.16407,0.8851 -0.16407,1.7931 0,2.6782 l -1.62528,0.9386 c -0.18695,0.1068 -0.27089,0.3281 -0.20984,0.5341 0.42349,1.3582 1.14456,2.5867 2.08691,3.6092 0.14498,0.1564 0.38152,0.1946 0.56466,0.088 l 1.62528,-0.9386 c 0.68291,0.5876 1.46885,1.0416 2.31963,1.3392 v 1.877 c 0,0.2137 0.1488,0.4006 0.35863,0.4464 1.40019,0.3129 2.83472,0.2976 4.16621,0 0.20984,-0.046 0.35863,-0.2327 0.35863,-0.4464 v -1.877 c 0.84697,-0.3014 1.6329,-0.7554 2.31964,-1.3392 l 1.62529,0.9386 c 0.18693,0.1068 0.41967,0.073 0.56464,-0.088 0.94235,-1.0187 1.66342,-2.2472 2.08692,-3.6092 0.0572,-0.2098 -0.0266,-0.4311 -0.21365,-0.5379 z m -8.82839,0.7745 c -1.6825,0 -3.05216,-1.3696 -3.05216,-3.0521 0,-1.6825 1.36966,-3.0522 3.05216,-3.0522 1.68252,0 3.05217,1.3697 3.05217,3.0522 0,1.6825 -1.36965,3.0521 -3.05217,3.0521 z"
     id="path17824-9-5"
     style="stroke-width:0.038152" />
  <text
     xml:space="preserve"
     style="font-size:37.3333px;line-height:1.45;font-family:sans-serif"
     x="246.54492"
     y="1164.6425"
     id="text17643-5-7-0"><tspan
       sodipodi:role="line"
       id="tspan17641-4-6-8"
       x="246.54492"
       y="1164.6425"
       style="font-style:normal;font-variant:normal;font-weight:bold;font-stretch:normal;font-size:37.3333px;font-family:sans-serif;-inkscape-font-specification:'sans-serif Bold'">Sonstige Tipps</tspan></text>
  <text
     xml:space="preserve"
     style="font-size:23.6024px;line-height:1.45;font-family:sans-serif;stroke-width:0.983435"
     x="245.08514"
     y="1159.9592"
     id="text17647-9-7-8"
     transform="scale(0.98343454,1.0168445)"><tspan
       sodipodi:role="line"
       x="245.08514"
       y="1159.9592"
       id="tspan17649-9-3-2"
       style="font-size:23.6024px;stroke-width:0.983435" /><tspan
       sodipodi:role="line"
       x="245.08514"
       y="1194.1827"
       style="font-size:23.6024px;stroke-width:0.983435"
       id="tspan17776-0-2"> • Die Aufzeichnung lokal und nicht in der Cloud speichern</tspan><tspan
       sodipodi:role="line"
       x="245.08514"
       y="1228.4062"
       style="font-size:23.6024px;stroke-width:0.983435"
       id="tspan18525"> • Ruhige Arbeitsumgebung, die zudem gut ausgeleuchtet ist</tspan><tspan
       sodipodi:role="line"
       x="245.08514"
       y="1262.6296"
       style="font-size:23.6024px;stroke-width:0.983435"
       id="tspan18519"> • Alle unnötigen Programme auf dem Aufnahmegerät ausschalten</tspan><tspan
       sodipodi:role="line"
       x="245.08514"
       y="1296.8531"
       style="font-size:23.6024px;stroke-width:0.983435"
       id="tspan18521"> • Lan-Kabel statt WLAN benutzen</tspan><tspan
       sodipodi:role="line"
       x="245.08514"
       y="1331.0767"
       style="font-size:23.6024px;stroke-width:0.983435"
       id="tspan18710"> • Vorher eine Testaufnahme mit Gästen machen</tspan><tspan
       sodipodi:role="line"
       x="245.08514"
       y="1365.3002"
       style="font-size:23.6024px;stroke-width:0.983435"
       id="tspan18523"> • Bequeme Sitz-oder Stehposition einnehmen</tspan><tspan
       sodipodi:role="line"
       x="245.08514"
       y="1399.5236"
       id="tspan17657-7-7-8"
       style="font-size:23.6024px;stroke-width:0.983435" /></text>
  <g
     id="g18316"
     transform="translate(1.62528,108.9385)">
    <text
       xml:space="preserve"
       style="font-size:23.6024px;line-height:1.45;font-family:sans-serif;stroke-width:0.983435"
       x="249.21658"
       y="861.93933"
       id="text17647-9-7-4"
       transform="scale(0.98343454,1.0168445)"><tspan
         sodipodi:role="line"
         x="249.21658"
         y="861.93933"
         id="tspan17649-9-3-0"
         style="font-size:23.6024px;stroke-width:0.983435" /><tspan
         sodipodi:role="line"
         x="249.21658"
         y="896.56531"
         style="font-size:24px;stroke-width:0.983435"
         id="tspan17661-3-1-0">Unter Einstellungen    &gt;&gt; Audio   </tspan><tspan
         sodipodi:role="line"
         x="249.21658"
         y="931.3653"
         style="font-size:24px;stroke-width:0.983435"
         id="tspan17776-0-8">✘ Mikrofonlautstärke automatisch anpassen (besser selbst pegeln)</tspan><tspan
         sodipodi:role="line"
         x="249.21658"
         y="966.03094"
         id="tspan17657-7-7-6"
         style="font-size:24px;stroke-width:0.983435" /></text>
    <path
       d="m 641.8609,893.0789 c -5.99751,0 -10.85215,4.85362 -10.85215,10.85213 v 2.03477 a 1.3565171,1.3565171 0 0 0 0.74987,1.21334 l 0.60971,0.30483 c 0.0852,2.54728 2.17675,4.58615 4.74475,4.58615 h 1.0174 c 0.56188,0 1.01738,-0.45547 1.01738,-1.01738 v -7.46084 c 0,-0.56188 -0.4555,-1.01736 -1.01738,-1.01736 h -1.0174 c -1.32862,0 -2.52951,0.54593 -3.39129,1.42546 v -0.0689 c 0,-4.4879 3.6512,-8.1391 8.13911,-8.1391 4.4879,0 8.1391,3.6512 8.1391,8.1391 V 904 c -0.86178,-0.87953 -2.06267,-1.42546 -3.39129,-1.42546 h -1.0174 c -0.56188,0 -1.01738,0.45548 -1.01738,1.01736 v 7.46084 c 0,0.5619 0.4555,1.01738 1.01738,1.01738 h 1.0174 c 2.568,0 4.65951,-2.03892 4.74475,-4.58615 l 0.60968,-0.30483 a 1.3565171,1.3565171 0 0 0 0.7499,-1.21334 v -2.03477 c 0,-5.99745 -4.85362,-10.85213 -10.85214,-10.85213 z"
       id="path18195"
       style="stroke-width:0.0423911" />
    <path
       d="m 502,904 -1.62528,-0.9385 c 0.16405,-0.8851 0.16405,-1.7932 0,-2.6783 L 502,899.4447 c 0.18693,-0.1068 0.27086,-0.3281 0.20983,-0.5341 -0.42349,-1.3583 -1.14455,-2.5868 -2.08692,-3.6092 -0.14499,-0.1564 -0.38151,-0.1946 -0.56464,-0.088 l -1.62528,0.9385 c -0.68293,-0.5875 -1.46886,-1.0415 -2.31964,-1.3391 v -1.8733 c 0,-0.2136 -0.1488,-0.4006 -0.35863,-0.4464 -1.40018,-0.3128 -2.83471,-0.2975 -4.1662,0 -0.20984,0.046 -0.35864,0.2328 -0.35864,0.4464 v 1.8771 c -0.84697,0.3014 -1.63291,0.7554 -2.31964,1.3391 l -1.62146,-0.9385 c -0.18695,-0.1068 -0.41968,-0.072 -0.56466,0.088 -0.94235,1.0187 -1.66342,2.2472 -2.08691,3.6092 -0.0649,0.206 0.0229,0.4273 0.20984,0.5341 l 1.62528,0.9386 c -0.16407,0.8851 -0.16407,1.7931 0,2.6782 l -1.62528,0.9386 c -0.18695,0.1068 -0.27089,0.3281 -0.20984,0.5341 0.42349,1.3582 1.14456,2.5867 2.08691,3.6092 0.14498,0.1564 0.38152,0.1946 0.56466,0.088 l 1.62528,-0.9386 c 0.68291,0.5876 1.46885,1.0416 2.31963,1.3392 v 1.877 c 0,0.2137 0.1488,0.4006 0.35863,0.4464 1.40019,0.3129 2.83472,0.2976 4.16621,0 0.20984,-0.046 0.35863,-0.2327 0.35863,-0.4464 v -1.877 c 0.84697,-0.3014 1.6329,-0.7554 2.31964,-1.3392 l 1.62529,0.9386 c 0.18693,0.1068 0.41967,0.073 0.56464,-0.088 0.94235,-1.0187 1.66342,-2.2472 2.08692,-3.6092 0.0572,-0.2098 -0.0266,-0.4311 -0.21365,-0.5379 z m -8.82839,0.7745 c -1.6825,0 -3.05216,-1.3696 -3.05216,-3.0521 0,-1.6825 1.36966,-3.0522 3.05216,-3.0522 1.68252,0 3.05217,1.3697 3.05217,3.0522 0,1.6825 -1.36965,3.0521 -3.05217,3.0521 z"
       id="path17824-9-5-5"
       style="stroke-width:0.038152" />
  </g>
  <path
     d="m 760,592 a 5.4428152,5.4428156 0 1 0 5.44282,5.44281 A 5.4428152,5.4428156 0 0 0 760,592 Z m 0,6.69884 a 1.2560342,1.2560342 0 1 1 1.25603,-1.25603 A 1.2560342,1.2560342 0 0 1 760,598.69884 Z m 0,-14.23505 c -7.16985,0 -12.97902,5.80917 -12.97902,12.97902 0,7.16986 5.80917,12.97903 12.97902,12.97903 7.16986,0 12.97903,-5.80917 12.97903,-12.97903 0,-7.16985 -5.80917,-12.97902 -12.97903,-12.97902 z m 0,19.67786 a 6.6988498,6.6988499 0 1 1 6.69884,-6.69884 A 6.6988498,6.6988499 0 0 1 760,604.14165 Z"
     id="path18272"
     style="stroke-width:0.0523347" />
  <path
     d="m 760,893.85835 a 5.4428152,5.4428156 0 1 0 5.44282,5.44281 A 5.4428152,5.4428156 0 0 0 760,893.85835 Z m 0,6.69884 a 1.2560342,1.2560342 0 1 1 1.25603,-1.25603 A 1.2560342,1.2560342 0 0 1 760,900.55719 Z m 0,-14.23505 c -7.16985,0 -12.97902,5.80917 -12.97902,12.97902 0,7.16986 5.80917,12.97903 12.97902,12.97903 7.16986,0 12.97903,-5.80917 12.97903,-12.97903 0,-7.16985 -5.80917,-12.97902 -12.97903,-12.97902 z M 760,906 a 6.6988498,6.6988499 0 1 1 6.69884,-6.69884 A 6.6988498,6.6988499 0 0 1 760,906 Z"
     id="path18272-3"
     style="stroke-width:0.0523347" />
  <text
     xml:space="preserve"
     id="text18303"
     style="line-height:1.45;font-family:sans-serif;font-size:192px;white-space:pre;shape-inside:url(#rect18305);" />
  <text
     xml:space="preserve"
     style="font-size:23.6024px;line-height:1.45;font-family:sans-serif;stroke-width:0.983435"
     x="251.31841"
     y="676.90424"
     id="text17647-9-7-4-6"
     transform="scale(0.98343454,1.0168445)"><tspan
       sodipodi:role="line"
       x="251.31841"
       y="676.90424"
       id="tspan17649-9-3-0-9"
       style="font-size:23.6024px;stroke-width:0.983435" /><tspan
       sodipodi:role="line"
       x="251.31841"
       y="711.53021"
       style="font-size:24px;stroke-width:0.983435"
       id="tspan17661-3-1-0-4">Unter Einstellungen    &gt;&gt; Video   </tspan><tspan
       sodipodi:role="line"
       x="251.31841"
       y="746.3302"
       style="font-size:24px;stroke-width:0.983435"
       id="tspan17776-0-8-5"> ✓ HD (bessere Auflösung für das eigene Videobild)</tspan><tspan
       sodipodi:role="line"
       x="251.31841"
       y="780.99585"
       id="tspan17657-7-7-6-1"
       style="font-size:24px;stroke-width:0.983435" /></text>
  <path
     d="m 504.06701,715.8481 -1.62528,-0.9385 c 0.16405,-0.8851 0.16405,-1.7932 0,-2.6783 l 1.62528,-0.9385 c 0.18693,-0.1068 0.27086,-0.3281 0.20983,-0.5341 -0.42349,-1.3583 -1.14455,-2.5868 -2.08692,-3.6092 -0.14499,-0.1564 -0.38151,-0.1946 -0.56464,-0.088 L 500,708 c -0.68293,-0.5875 -1.46886,-1.0415 -2.31964,-1.3391 v -1.8733 c 0,-0.2136 -0.1488,-0.4006 -0.35863,-0.4464 -1.40018,-0.3128 -2.83471,-0.2975 -4.1662,0 -0.20984,0.046 -0.35864,0.2328 -0.35864,0.4464 v 1.8771 c -0.84697,0.3014 -1.63291,0.7554 -2.31964,1.3391 l -1.62146,-0.9385 c -0.18695,-0.1068 -0.41968,-0.072 -0.56466,0.088 -0.94235,1.0187 -1.66342,2.2472 -2.08691,3.6092 -0.0649,0.206 0.0229,0.4273 0.20984,0.5341 l 1.62528,0.9386 c -0.16407,0.8851 -0.16407,1.7931 0,2.6782 l -1.62528,0.9386 c -0.18695,0.1068 -0.27089,0.3281 -0.20984,0.5341 0.42349,1.3582 1.14456,2.5867 2.08691,3.6092 0.14498,0.1564 0.38152,0.1946 0.56466,0.088 l 1.62528,-0.9386 c 0.68291,0.5876 1.46885,1.0416 2.31963,1.3392 v 1.877 c 0,0.2137 0.1488,0.4006 0.35863,0.4464 1.40019,0.3129 2.83472,0.2976 4.16621,0 0.20984,-0.046 0.35863,-0.2327 0.35863,-0.4464 v -1.877 c 0.84697,-0.3014 1.6329,-0.7554 2.31964,-1.3392 l 1.62529,0.9386 c 0.18693,0.1068 0.41967,0.073 0.56464,-0.088 0.94235,-1.0187 1.66342,-2.2472 2.08692,-3.6092 0.0572,-0.2098 -0.0266,-0.4311 -0.21365,-0.5379 z m -8.82839,0.7745 c -1.6825,0 -3.05216,-1.3696 -3.05216,-3.0521 0,-1.6825 1.36966,-3.0522 3.05216,-3.0522 1.68252,0 3.05217,1.3697 3.05217,3.0522 0,1.6825 -1.36965,3.0521 -3.05217,3.0521 z"
     id="path17824-9-5-5-2"
     style="stroke-width:0.038152" />
  <path
     d="m 143.76556,1193.4761 c -34.81263,0 -63.03828,28.2357 -63.03828,63.0383 0,34.8228 28.22565,63.0382 63.03828,63.0382 34.81262,0 63.03828,-28.2154 63.03828,-63.0382 0,-34.8026 -28.22566,-63.0383 -63.03828,-63.0383 z m 0,27.9606 c 5.89611,0 10.67584,4.7796 10.67584,10.6757 0,5.8963 -4.77973,10.6759 -10.67584,10.6759 -5.89611,0 -10.67584,-4.7796 -10.67584,-10.6759 0,-5.8961 4.77973,-10.6757 10.67584,-10.6757 z M 158,1286 c 0,1.6845 -1.36574,3.0502 -3.05024,3.0502 h -22.36841 c -1.68449,0 -3.05023,-1.3657 -3.05023,-3.0502 v -6.1005 c 0,-1.6845 1.36574,-3.0501 3.05023,-3.0501 h 3.05023 v -16.2681 h -3.05023 c -1.68449,0 -3.05023,-1.3656 -3.05023,-3.0502 v -6.1004 c 0,-1.6845 1.36574,-3.0503 3.05023,-3.0503 h 16.26794 c 1.68449,0 3.05024,1.3658 3.05024,3.0503 v 25.4187 h 3.05023 c 1.6845,0 3.05024,1.3656 3.05024,3.0501 z"
     id="path18472"
     style="stroke-width:0.254186" />
  <text
     xml:space="preserve"
     style="font-size:30.611px;line-height:1.45;font-family:sans-serif;stroke-width:0.478297"
     x="215.88524"
     y="1492.3408"
     id="text18529"><tspan
       sodipodi:role="line"
       id="tspan18527"
       x="215.88524"
       y="1492.3408"
       style="font-style:normal;font-variant:normal;font-weight:bold;font-stretch:normal;font-size:30.611px;font-family:sans-serif;-inkscape-font-specification:'sans-serif Bold';stroke-width:0.478297">ZLE</tspan></text>
  <text
     xml:space="preserve"
     style="font-size:91.833px;line-height:1.45;font-family:sans-serif;stroke-width:0.478297"
     x="217.23424"
     y="1515.9015"
     id="text18533"><tspan
       sodipodi:role="line"
       x="217.23424"
       y="1515.9015"
       id="tspan18535"
       style="font-size:20.4074px;stroke-width:0.478297">Zentrum für </tspan><tspan
       sodipodi:role="line"
       x="217.23424"
       y="1649.0593"
       style="font-size:20.4074px;stroke-width:0.478297"
       id="tspan18541" /></text>
  <text
     xml:space="preserve"
     style="font-size:20.4074px;line-height:1.45;font-family:sans-serif;stroke-width:0.478297"
     x="217.90877"
     y="1538.7009"
     id="text18545"><tspan
       sodipodi:role="line"
       id="tspan18543"
       x="217.90877"
       y="1538.7009"
       style="font-size:20.4074px;stroke-width:0.478297">Lehrentwicklung</tspan></text>
  <g
     transform="matrix(1.4549828,0,0,1.4548317,157.30038,1477.2017)"
     id="g260"
     inkscape:export-filename="/mnt/hgfs/Bov/Documents/Work/2007/cc/identity/srr buttons/big/by.png"
     inkscape:export-xdpi="300.23013"
     inkscape:export-ydpi="300.23013">
    <path
       id="path3817_1_"
       nodetypes="ccccccc"
       d="m 181.96579,0.51074 114.06396,0.20264 c 1.59375,0 3.01758,-0.23633 3.01758,3.18066 l -0.13965,37.56689 H 179.08737 V 3.75439 c 0,-1.68505 0.16309,-3.24365 2.87842,-3.24365 z"
       style="fill:#aab2ab" />
    <path
       d="m 297.29636,0 h -116.229 c -1.24658,0 -2.26123,1.01416 -2.26123,2.26074 v 39.49658 c 0,0.28174 0.229,0.51025 0.51074,0.51025 h 119.73047 c 0.28174,0 0.51074,-0.22852 0.51074,-0.51025 V 2.26074 C 299.55807,1.01416 298.54343,0 297.29636,0 Z M 181.06735,1.02148 h 116.229 c 0.68408,0 1.24023,0.55566 1.24023,1.23926 0,0 0,15.94824 0,27.44971 h -83.34424 c -3.04492,5.50586 -8.91113,9.24414 -15.64355,9.24414 -6.73535,0 -12.6001,-3.73486 -15.64355,-9.24414 h -4.07764 c 0,-11.50146 0,-27.44971 0,-27.44971 1e-5,-0.68359 0.55616,-1.23926 1.23975,-1.23926 z"
       id="path263" />
    <g
       enable-background="new    "
       id="g265">
      <path
         d="m 253.07761,32.95605 c 0.31738,0 0.60742,0.02832 0.87012,0.08398 0.26172,0.05566 0.48535,0.14746 0.67285,0.27539 0.18652,0.12695 0.33203,0.29688 0.43457,0.50781 0.10254,0.21191 0.1543,0.47266 0.1543,0.78418 0,0.33594 -0.0762,0.61523 -0.22949,0.83887 -0.15234,0.22461 -0.37891,0.40723 -0.67773,0.55078 0.41211,0.11816 0.71973,0.3252 0.92285,0.62109 0.20312,0.29589 0.30469,0.65234 0.30469,1.06934 0,0.33594 -0.0654,0.62695 -0.19629,0.87305 -0.13086,0.24512 -0.30762,0.44629 -0.52832,0.60156 -0.22168,0.15625 -0.47461,0.27148 -0.75781,0.3457 -0.28418,0.0752 -0.5752,0.1123 -0.875,0.1123 H 249.936 v -6.66406 h 3.14161 z m -0.1875,2.69532 c 0.26172,0 0.47656,-0.0625 0.64551,-0.18652 0.16797,-0.12402 0.25195,-0.3252 0.25195,-0.60449 0,-0.15527 -0.0283,-0.2832 -0.084,-0.38184 -0.0566,-0.09961 -0.13086,-0.17676 -0.22461,-0.2334 -0.0937,-0.05566 -0.20117,-0.09473 -0.32227,-0.11621 -0.1211,-0.02148 -0.24805,-0.03223 -0.37793,-0.03223 h -1.37402 v 1.55469 z m 0.0859,2.82812 c 0.14355,0 0.28027,-0.01367 0.41113,-0.04199 0.13086,-0.02832 0.24609,-0.0752 0.34668,-0.13965 0.0996,-0.06543 0.17871,-0.1543 0.23828,-0.2666 0.0596,-0.11133 0.0889,-0.25488 0.0889,-0.42871 0,-0.3418 -0.0967,-0.58594 -0.29004,-0.73242 -0.19336,-0.14551 -0.44922,-0.21875 -0.7666,-0.21875 h -1.59961 v 1.82812 z"
         id="path267"
         style="fill:#ffffff" />
      <path
         d="m 255.78854,32.95605 h 1.64355 l 1.56055,2.63184 1.55078,-2.63184 h 1.63379 l -2.47363,4.10645 v 2.55762 h -1.46875 v -2.59473 z"
         id="path269"
         style="fill:#ffffff" />
    </g>
    <g
       id="g5908_1_"
       transform="matrix(0.872921,0,0,0.872921,50.12536,143.2144)">
      <path
         id="path5906_1_"
         cx="296.35416"
         ry="22.939548"
         cy="264.3577"
         type="arc"
         rx="22.939548"
         d="m 186.90065,-141.46002 c 0.006,8.68079 -7.02786,15.7215 -15.70808,15.72711 -8.68022,0.006 -15.72206,-7.02734 -15.7271,-15.70807 0,-0.006 0,-0.0123 0,-0.019 -0.005,-8.68079 7.02786,-15.7215 15.70808,-15.72656 8.68135,-0.006 15.72206,7.02734 15.7271,15.70813 0,0.006 0,0.0123 0,0.0184 z"
         style="fill:#ffffff" />
      <g
         id="g5706_1_"
         transform="translate(-289.6157,99.0653)">
        <path
           id="path5708_1_"
           d="m 473.57574,-253.32751 c 3.48541,3.48541 5.22839,7.75391 5.22839,12.80219 0,5.04938 -1.71277,9.27203 -5.13831,12.66791 -3.63531,3.5766 -7.93182,5.36432 -12.88947,5.36432 -4.89777,0 -9.11987,-1.77319 -12.66513,-5.31952 -3.54581,-3.54584 -5.31845,-7.78302 -5.31845,-12.71271 0,-4.92859 1.77264,-9.19598 5.31845,-12.80219 3.4552,-3.48651 7.67728,-5.22949 12.66513,-5.22949 5.0483,-10e-6 9.31404,1.74297 12.79939,5.22949 z m -23.11798,2.34484 c -2.94672,2.97638 -4.41953,6.46289 -4.41953,10.46234 0,3.99835 1.45828,7.45526 4.37424,10.37067 2.9165,2.9165 6.38849,4.37421 10.41705,4.37421 4.02856,0 7.53015,-1.47223 10.50653,-4.4184 2.82593,-2.73645 4.23944,-6.17706 4.23944,-10.32648 0,-4.11804 -1.43646,-7.61346 -4.30768,-10.48468 -2.87067,-2.87067 -6.34991,-4.30658 -10.43829,-4.30658 -4.0884,1e-5 -7.54638,1.44318 -10.37176,4.32892 z m 7.75449,8.70319 c -0.45029,-0.98169 -1.1243,-1.47284 -2.02322,-1.47284 -1.58917,0 -2.38345,1.07007 -2.38345,3.20911 0,2.13953 0.79428,3.2085 2.38345,3.2085 1.04938,0 1.79892,-0.52075 2.24866,-1.56451 l 2.20276,1.17297 c -1.04993,1.86548 -2.62509,2.79846 -4.72549,2.79846 -1.6199,0 -2.91763,-0.4967 -3.89206,-1.48901 -0.9761,-0.99341 -1.46274,-2.36273 -1.46274,-4.10852 0,-1.71503 0.50229,-3.07654 1.50748,-4.08502 1.00519,-1.00854 2.25702,-1.51257 3.75781,-1.51257 2.22012,0 3.80981,0.87488 4.77081,2.62286 z m 10.36337,0 c -0.45087,-0.98169 -1.11145,-1.47284 -1.98242,-1.47284 -1.62103,0 -2.43213,1.07007 -2.43213,3.20911 0,2.13953 0.8111,3.2085 2.43213,3.2085 1.05109,0 1.78717,-0.52075 2.20728,-1.56451 l 2.25201,1.17297 c -1.04828,1.86548 -2.62122,2.79846 -4.71771,2.79846 -1.61768,0 -2.9126,-0.4967 -3.88647,-1.48901 -0.97217,-0.99341 -1.45935,-2.36273 -1.45935,-4.10852 0,-1.71503 0.49445,-3.07654 1.48285,-4.08502 0.98785,-1.00854 2.2453,-1.51257 3.7735,-1.51257 2.21619,0 3.80365,0.87488 4.76129,2.62286 z" />
      </g>
    </g>
    <g
       id="g275">
      <circle
         cx="255.55124"
         cy="15.31348"
         r="10.80664"
         id="circle277"
         style="fill:#ffffff" />
      <g
         id="g279">
        <path
           d="m 258.67819,12.18701 c 0,-0.4165 -0.33789,-0.75391 -0.75293,-0.75391 h -4.77344 c -0.41504,0 -0.75293,0.3374 -0.75293,0.75391 v 4.77295 h 1.33105 v 5.65186 h 3.61719 v -5.65186 h 1.33105 v -4.77295 z"
           id="path281" />
        <circle
           cx="255.53854"
           cy="9.1723604"
           r="1.63281"
           id="circle283" />
      </g>
      <path
         clip-rule="evenodd"
         d="m 255.5239,3.40723 c -3.23242,0 -5.96875,1.12793 -8.20801,3.38379 -2.29785,2.3335 -3.44629,5.0957 -3.44629,8.28467 0,3.18897 1.14844,5.93164 3.44629,8.22656 2.29785,2.29443 5.03418,3.44189 8.20801,3.44189 3.21289,0 5.99805,-1.15625 8.35352,-3.47119 2.21973,-2.19727 3.33008,-4.92969 3.33008,-8.19727 0,-3.26758 -1.12988,-6.02881 -3.3877,-8.28467 -2.25977,-2.25585 -5.02442,-3.38378 -8.2959,-3.38378 z m 0.0293,2.09961 c 2.64844,0 4.89746,0.93408 6.74707,2.80127 1.86914,1.84717 2.80371,4.10303 2.80371,6.76758 0,2.68359 -0.91504,4.91064 -2.74512,6.68018 -1.92871,1.90625 -4.19629,2.85889 -6.80566,2.85889 -2.61035,0 -4.85938,-0.94287 -6.74707,-2.82959 -1.88965,-1.88672 -2.83301,-4.12305 -2.83301,-6.70947 0,-2.58691 0.9541,-4.84229 2.8623,-6.76758 1.83009,-1.8672 4.06934,-2.80128 6.71778,-2.80128 z"
         id="path285"
         style="fill-rule:evenodd" />
    </g>
  </g>
  <text
     xml:space="preserve"
     style="font-size:16px;line-height:1.45;font-family:sans-serif"
     x="623.10339"
     y="1492.9489"
     id="text18702"
     onclick="https://creativecommons.org/licenses/by/4.0/deed.de"><title
       id="title18732">CC BY 4.0-Lizenz</title><tspan
       sodipodi:role="line"
       id="tspan18700"
       x="623.10339"
       y="1492.9489"
       style="font-size:16px">Dieser Text steht unter der CC BY 4.0-Lizenz. Der Name </tspan><tspan
       sodipodi:role="line"
       x="623.10339"
       y="1516.1488"
       style="font-size:16px"
       id="tspan18706">der Urheberin soll bei einer Weiterverwendung wie folgt </tspan><tspan
       sodipodi:role="line"
       x="623.10339"
       y="1539.3489"
       style="font-size:16px"
       id="tspan18708">genannt werden:  <tspan
   style="font-style:normal;font-variant:normal;font-weight:bold;font-stretch:normal;font-family:sans-serif;-inkscape-font-specification:'sans-serif Bold'"
   id="tspan18730">Technische Hochschule Köln - ZLE</tspan></tspan></text>
  <path
     d="m 648.35344,704.96901 h -13.58402 c -1.24347,0 -2.25143,1.00796 -2.25143,2.25145 v 13.58399 c 0,1.24349 1.00796,2.25145 2.25143,2.25145 h 13.58402 c 1.24346,0 2.25144,-1.00796 2.25144,-2.25145 v -13.58399 c 0,-1.24349 -1.00798,-2.25145 -2.25144,-2.25145 z m 8.92098,1.77572 -5.16231,3.56086 v 7.41374 l 5.16231,3.55614 c 0.99855,0.68769 2.3739,-0.0141 2.3739,-1.2152 v -12.10033 c 0,-1.19638 -1.37065,-1.90288 -2.3739,-1.21521 z"
     id="path17630-6"
     style="stroke-width:0.0471012" />
</svg>
